<?xml version="1.0" encoding="UTF-8" standalone="no"?>
<!-- Created with Inkscape (http://www.inkscape.org/) -->

<svg
   version="1.1"
   id="svg1"
   width="122.41992"
   height="157.69019"
   viewBox="0 0 122.41992 157.69018"
   sodipodi:docname="CF_BROSCHUERE_SCREEN_E (1) (1).pdf"
   xmlns:inkscape="http://www.inkscape.org/namespaces/inkscape"
   xmlns:sodipodi="http://sodipodi.sourceforge.net/DTD/sodipodi-0.dtd"
   xmlns="http://www.w3.org/2000/svg"
   xmlns:svg="http://www.w3.org/2000/svg">
  <defs
     id="defs1">
    <clipPath
       clipPathUnits="userSpaceOnUse"
       id="clipPath10778">
      <path
         d="m 328.88,319.028 -0.63,-3.149 v -5.31 -31.86 h 63.81 v 31.86 h -26.102 v 5.31 l -0.719,3.149 z"
         transform="translate(-418.98484,-320.65151)"
         id="path10778" />
    </clipPath>
    <clipPath
       clipPathUnits="userSpaceOnUse"
       id="clipPath10780">
      <path
         d="m 328.88,319.028 -0.63,-3.149 v -5.31 -31.86 h 63.81 v 31.86 h -26.102 v 5.31 l -0.719,3.149 z"
         transform="translate(-417.15821,-320.65151)"
         id="path10780" />
    </clipPath>
    <clipPath
       clipPathUnits="userSpaceOnUse"
       id="clipPath10782">
      <path
         d="m 328.88,319.028 -0.63,-3.149 v -5.31 -31.86 h 63.81 v 31.86 h -26.102 v 5.31 l -0.719,3.149 z"
         transform="translate(-415.33151,-320.65151)"
         id="path10782" />
    </clipPath>
    <clipPath
       clipPathUnits="userSpaceOnUse"
       id="clipPath10784">
      <path
         d="m 328.88,319.028 -0.63,-3.149 v -5.31 -31.86 h 63.81 v 31.86 h -26.102 v 5.31 l -0.719,3.149 z"
         transform="translate(-413.50489,-320.65151)"
         id="path10784" />
    </clipPath>
    <clipPath
       clipPathUnits="userSpaceOnUse"
       id="clipPath10786">
      <path
         d="m 328.88,319.028 -0.63,-3.149 v -5.31 -31.86 h 63.81 v 31.86 h -26.102 v 5.31 l -0.719,3.149 z"
         transform="translate(-411.67819,-320.65151)"
         id="path10786" />
    </clipPath>
    <clipPath
       clipPathUnits="userSpaceOnUse"
       id="clipPath10788">
      <path
         d="m 328.88,319.028 -0.63,-3.149 v -5.31 -31.86 h 63.81 v 31.86 h -26.102 v 5.31 l -0.719,3.149 z"
         transform="translate(-409.85164,-320.65151)"
         id="path10788" />
    </clipPath>
    <clipPath
       clipPathUnits="userSpaceOnUse"
       id="clipPath10790">
      <path
         d="m 328.88,319.028 -0.63,-3.149 v -5.31 -31.86 h 63.81 v 31.86 h -26.102 v 5.31 l -0.719,3.149 z"
         transform="translate(-408.02479,-320.65151)"
         id="path10790" />
    </clipPath>
    <clipPath
       clipPathUnits="userSpaceOnUse"
       id="clipPath10792">
      <path
         d="m 328.88,319.028 -0.63,-3.149 v -5.31 -31.86 h 63.81 v 31.86 h -26.102 v 5.31 l -0.719,3.149 z"
         transform="translate(-406.19824,-320.65151)"
         id="path10792" />
    </clipPath>
    <clipPath
       clipPathUnits="userSpaceOnUse"
       id="clipPath10794">
      <path
         d="m 328.88,319.028 -0.63,-3.149 v -5.31 -31.86 h 63.81 v 31.86 h -26.102 v 5.31 l -0.719,3.149 z"
         transform="translate(-404.37161,-320.65151)"
         id="path10794" />
    </clipPath>
    <clipPath
       clipPathUnits="userSpaceOnUse"
       id="clipPath10796">
      <path
         d="m 328.88,319.028 -0.63,-3.149 v -5.31 -31.86 h 63.81 v 31.86 h -26.102 v 5.31 l -0.719,3.149 z"
         transform="translate(-402.54491,-320.65151)"
         id="path10796" />
    </clipPath>
    <clipPath
       clipPathUnits="userSpaceOnUse"
       id="clipPath10798">
      <path
         d="m 328.88,319.028 -0.63,-3.149 v -5.31 -31.86 h 63.81 v 31.86 h -26.102 v 5.31 l -0.719,3.149 z"
         transform="translate(-400.71829,-320.65151)"
         id="path10798" />
    </clipPath>
    <clipPath
       clipPathUnits="userSpaceOnUse"
       id="clipPath10800">
      <path
         d="m 328.88,319.028 -0.63,-3.149 v -5.31 -31.86 h 63.81 v 31.86 h -26.102 v 5.31 l -0.719,3.149 z"
         transform="translate(-398.89158,-320.65151)"
         id="path10800" />
    </clipPath>
    <clipPath
       clipPathUnits="userSpaceOnUse"
       id="clipPath10802">
      <path
         d="m 328.88,319.028 -0.63,-3.149 v -5.31 -31.86 h 63.81 v 31.86 h -26.102 v 5.31 l -0.719,3.149 z"
         transform="translate(-397.06503,-320.65151)"
         id="path10802" />
    </clipPath>
    <clipPath
       clipPathUnits="userSpaceOnUse"
       id="clipPath10804">
      <path
         d="m 328.88,319.028 -0.63,-3.149 v -5.31 -31.86 h 63.81 v 31.86 h -26.102 v 5.31 l -0.719,3.149 z"
         transform="translate(-395.23833,-320.65151)"
         id="path10804" />
    </clipPath>
    <clipPath
       clipPathUnits="userSpaceOnUse"
       id="clipPath10806">
      <path
         d="m 328.88,319.028 -0.63,-3.149 v -5.31 -31.86 h 63.81 v 31.86 h -26.102 v 5.31 l -0.719,3.149 z"
         transform="translate(-393.41163,-320.65151)"
         id="path10806" />
    </clipPath>
    <clipPath
       clipPathUnits="userSpaceOnUse"
       id="clipPath10808">
      <path
         d="m 328.88,319.028 -0.63,-3.149 v -5.31 -31.86 h 63.81 v 31.86 h -26.102 v 5.31 l -0.719,3.149 z"
         transform="translate(-391.58501,-320.65151)"
         id="path10808" />
    </clipPath>
    <clipPath
       clipPathUnits="userSpaceOnUse"
       id="clipPath10810">
      <path
         d="m 328.88,319.028 -0.63,-3.149 v -5.31 -31.86 h 63.81 v 31.86 h -26.102 v 5.31 l -0.719,3.149 z"
         transform="translate(-389.75831,-320.65151)"
         id="path10810" />
    </clipPath>
    <clipPath
       clipPathUnits="userSpaceOnUse"
       id="clipPath10812">
      <path
         d="m 328.88,319.028 -0.63,-3.149 v -5.31 -31.86 h 63.81 v 31.86 h -26.102 v 5.31 l -0.719,3.149 z"
         transform="translate(-387.93161,-320.65151)"
         id="path10812" />
    </clipPath>
    <clipPath
       clipPathUnits="userSpaceOnUse"
       id="clipPath10814">
      <path
         d="m 328.88,319.028 -0.63,-3.149 v -5.31 -31.86 h 63.81 v 31.86 h -26.102 v 5.31 l -0.719,3.149 z"
         transform="translate(-386.10498,-320.65151)"
         id="path10814" />
    </clipPath>
    <clipPath
       clipPathUnits="userSpaceOnUse"
       id="clipPath10816">
      <path
         d="m 328.88,319.028 -0.63,-3.149 v -5.31 -31.86 h 63.81 v 31.86 h -26.102 v 5.31 l -0.719,3.149 z"
         transform="translate(-384.27828,-320.65151)"
         id="path10816" />
    </clipPath>
    <clipPath
       clipPathUnits="userSpaceOnUse"
       id="clipPath10818">
      <path
         d="m 328.88,319.028 -0.63,-3.149 v -5.31 -31.86 h 63.81 v 31.86 h -26.102 v 5.31 l -0.719,3.149 z"
         transform="translate(-382.45173,-320.65151)"
         id="path10818" />
    </clipPath>
    <clipPath
       clipPathUnits="userSpaceOnUse"
       id="clipPath10820">
      <path
         d="m 328.88,319.028 -0.63,-3.149 v -5.31 -31.86 h 63.81 v 31.86 h -26.102 v 5.31 l -0.719,3.149 z"
         transform="translate(-380.62488,-320.65151)"
         id="path10820" />
    </clipPath>
    <clipPath
       clipPathUnits="userSpaceOnUse"
       id="clipPath10822">
      <path
         d="m 328.88,319.028 -0.63,-3.149 v -5.31 -31.86 h 63.81 v 31.86 h -26.102 v 5.31 l -0.719,3.149 z"
         transform="translate(-378.79833,-320.65151)"
         id="path10822" />
    </clipPath>
    <clipPath
       clipPathUnits="userSpaceOnUse"
       id="clipPath10824">
      <path
         d="m 328.88,319.028 -0.63,-3.149 v -5.31 -31.86 h 63.81 v 31.86 h -26.102 v 5.31 l -0.719,3.149 z"
         transform="translate(-433.62161,-320.65151)"
         id="path10824" />
    </clipPath>
    <clipPath
       clipPathUnits="userSpaceOnUse"
       id="clipPath10826">
      <path
         d="m 328.88,319.028 -0.63,-3.149 v -5.31 -31.86 h 63.81 v 31.86 h -26.102 v 5.31 l -0.719,3.149 z"
         transform="translate(-431.79491,-320.65151)"
         id="path10826" />
    </clipPath>
    <clipPath
       clipPathUnits="userSpaceOnUse"
       id="clipPath10828">
      <path
         d="m 328.88,319.028 -0.63,-3.149 v -5.31 -31.86 h 63.81 v 31.86 h -26.102 v 5.31 l -0.719,3.149 z"
         transform="translate(-429.96829,-320.65151)"
         id="path10828" />
    </clipPath>
    <clipPath
       clipPathUnits="userSpaceOnUse"
       id="clipPath10830">
      <path
         d="m 328.88,319.028 -0.63,-3.149 v -5.31 -31.86 h 63.81 v 31.86 h -26.102 v 5.31 l -0.719,3.149 z"
         transform="translate(-428.14159,-320.65151)"
         id="path10830" />
    </clipPath>
    <clipPath
       clipPathUnits="userSpaceOnUse"
       id="clipPath10832">
      <path
         d="m 328.88,319.028 -0.63,-3.149 v -5.31 -31.86 h 63.81 v 31.86 h -26.102 v 5.31 l -0.719,3.149 z"
         transform="translate(-426.31504,-320.65151)"
         id="path10832" />
    </clipPath>
    <clipPath
       clipPathUnits="userSpaceOnUse"
       id="clipPath10834">
      <path
         d="m 328.88,319.028 -0.63,-3.149 v -5.31 -31.86 h 63.81 v 31.86 h -26.102 v 5.31 l -0.719,3.149 z"
         transform="translate(-424.48834,-320.65151)"
         id="path10834" />
    </clipPath>
    <clipPath
       clipPathUnits="userSpaceOnUse"
       id="clipPath10836">
      <path
         d="m 328.88,319.028 -0.63,-3.149 v -5.31 -31.86 h 63.81 v 31.86 h -26.102 v 5.31 l -0.719,3.149 z"
         transform="translate(-422.66164,-320.65151)"
         id="path10836" />
    </clipPath>
    <clipPath
       clipPathUnits="userSpaceOnUse"
       id="clipPath10838">
      <path
         d="m 328.88,319.028 -0.63,-3.149 v -5.31 -31.86 h 63.81 v 31.86 h -26.102 v 5.31 l -0.719,3.149 z"
         transform="translate(-420.83501,-320.65151)"
         id="path10838" />
    </clipPath>
    <clipPath
       clipPathUnits="userSpaceOnUse"
       id="clipPath10840">
      <path
         d="m 328.88,319.028 -0.63,-3.149 v -5.31 -31.86 h 63.81 v 31.86 h -26.102 v 5.31 l -0.719,3.149 z"
         transform="translate(-376.97171,-320.65151)"
         id="path10840" />
    </clipPath>
    <clipPath
       clipPathUnits="userSpaceOnUse"
       id="clipPath10842">
      <path
         d="m 328.88,319.028 -0.63,-3.149 v -5.31 -31.86 h 63.81 v 31.86 h -26.102 v 5.31 l -0.719,3.149 z"
         transform="translate(-375.14501,-320.65151)"
         id="path10842" />
    </clipPath>
    <clipPath
       clipPathUnits="userSpaceOnUse"
       id="clipPath10844">
      <path
         d="m 328.88,319.028 -0.63,-3.149 v -5.31 -31.86 h 63.81 v 31.86 h -26.102 v 5.31 l -0.719,3.149 z"
         transform="translate(-373.31838,-320.65151)"
         id="path10844" />
    </clipPath>
    <clipPath
       clipPathUnits="userSpaceOnUse"
       id="clipPath10846">
      <path
         d="m 328.88,319.028 -0.63,-3.149 v -5.31 -31.86 h 63.81 v 31.86 h -26.102 v 5.31 l -0.719,3.149 z"
         transform="translate(-371.49168,-320.65151)"
         id="path10846" />
    </clipPath>
    <clipPath
       clipPathUnits="userSpaceOnUse"
       id="clipPath10848">
      <path
         d="m 328.88,319.028 -0.63,-3.149 v -5.31 -31.86 h 63.81 v 31.86 h -26.102 v 5.31 l -0.719,3.149 z"
         transform="translate(-369.66513,-320.65151)"
         id="path10848" />
    </clipPath>
    <clipPath
       clipPathUnits="userSpaceOnUse"
       id="clipPath10850">
      <path
         d="m 328.88,319.028 -0.63,-3.149 v -5.31 -31.86 h 63.81 v 31.86 h -26.102 v 5.31 l -0.719,3.149 z"
         transform="translate(-367.83843,-320.65151)"
         id="path10850" />
    </clipPath>
    <clipPath
       clipPathUnits="userSpaceOnUse"
       id="clipPath10852">
      <path
         d="m 328.88,319.028 -0.63,-3.149 v -5.31 -31.86 h 63.81 v 31.86 h -26.102 v 5.31 l -0.719,3.149 z"
         transform="translate(-366.01173,-320.65151)"
         id="path10852" />
    </clipPath>
    <clipPath
       clipPathUnits="userSpaceOnUse"
       id="clipPath10854">
      <path
         d="m 328.88,319.028 -0.63,-3.149 v -5.31 -31.86 h 63.81 v 31.86 h -26.102 v 5.31 l -0.719,3.149 z"
         transform="translate(-364.18511,-320.65151)"
         id="path10854" />
    </clipPath>
    <clipPath
       clipPathUnits="userSpaceOnUse"
       id="clipPath10856">
      <path
         d="m 328.88,319.028 -0.63,-3.149 v -5.31 -31.86 h 63.81 v 31.86 h -26.102 v 5.31 l -0.719,3.149 z"
         transform="translate(-362.35841,-320.65151)"
         id="path10856" />
    </clipPath>
    <clipPath
       clipPathUnits="userSpaceOnUse"
       id="clipPath10858">
      <path
         d="m 328.88,319.028 -0.63,-3.149 v -5.31 -31.86 h 63.81 v 31.86 h -26.102 v 5.31 l -0.719,3.149 z"
         transform="translate(-360.53171,-320.65151)"
         id="path10858" />
    </clipPath>
    <clipPath
       clipPathUnits="userSpaceOnUse"
       id="clipPath10860">
      <path
         d="m 328.88,319.028 -0.63,-3.149 v -5.31 -31.86 h 63.81 v 31.86 h -26.102 v 5.31 l -0.719,3.149 z"
         transform="translate(-358.70508,-320.65151)"
         id="path10860" />
    </clipPath>
    <clipPath
       clipPathUnits="userSpaceOnUse"
       id="clipPath10862">
      <path
         d="m 328.88,319.028 -0.63,-3.149 v -5.31 -31.86 h 63.81 v 31.86 h -26.102 v 5.31 l -0.719,3.149 z"
         transform="translate(-356.87838,-320.65151)"
         id="path10862" />
    </clipPath>
    <clipPath
       clipPathUnits="userSpaceOnUse"
       id="clipPath10864">
      <path
         d="m 328.88,319.028 -0.63,-3.149 v -5.31 -31.86 h 63.81 v 31.86 h -26.102 v 5.31 l -0.719,3.149 z"
         transform="translate(-355.05183,-320.65151)"
         id="path10864" />
    </clipPath>
    <clipPath
       clipPathUnits="userSpaceOnUse"
       id="clipPath10866">
      <path
         d="m 328.88,319.028 -0.63,-3.149 v -5.31 -31.86 h 63.81 v 31.86 h -26.102 v 5.31 l -0.719,3.149 z"
         transform="translate(-353.22498,-320.65151)"
         id="path10866" />
    </clipPath>
    <clipPath
       clipPathUnits="userSpaceOnUse"
       id="clipPath10868">
      <path
         d="m 328.88,319.028 -0.63,-3.149 v -5.31 -31.86 h 63.81 v 31.86 h -26.102 v 5.31 l -0.719,3.149 z"
         transform="translate(-351.39843,-320.65151)"
         id="path10868" />
    </clipPath>
    <clipPath
       clipPathUnits="userSpaceOnUse"
       id="clipPath10870">
      <path
         d="m 328.88,319.028 -0.63,-3.149 v -5.31 -31.86 h 63.81 v 31.86 h -26.102 v 5.31 l -0.719,3.149 z"
         transform="translate(-349.57173,-320.65151)"
         id="path10870" />
    </clipPath>
    <clipPath
       clipPathUnits="userSpaceOnUse"
       id="clipPath10872">
      <path
         d="m 328.88,319.028 -0.63,-3.149 v -5.31 -31.86 h 63.81 v 31.86 h -26.102 v 5.31 l -0.719,3.149 z"
         transform="translate(-347.74511,-320.65151)"
         id="path10872" />
    </clipPath>
    <clipPath
       clipPathUnits="userSpaceOnUse"
       id="clipPath10874">
      <path
         d="m 328.88,319.028 -0.63,-3.149 v -5.31 -31.86 h 63.81 v 31.86 h -26.102 v 5.31 l -0.719,3.149 z"
         transform="translate(-345.91848,-320.65151)"
         id="path10874" />
    </clipPath>
    <clipPath
       clipPathUnits="userSpaceOnUse"
       id="clipPath10876">
      <path
         d="m 328.88,319.028 -0.63,-3.149 v -5.31 -31.86 h 63.81 v 31.86 h -26.102 v 5.31 l -0.719,3.149 z"
         transform="translate(-344.09178,-320.65151)"
         id="path10876" />
    </clipPath>
    <clipPath
       clipPathUnits="userSpaceOnUse"
       id="clipPath10878">
      <path
         d="m 328.88,319.028 -0.63,-3.149 v -5.31 -31.86 h 63.81 v 31.86 h -26.102 v 5.31 l -0.719,3.149 z"
         transform="translate(-342.26523,-320.65151)"
         id="path10878" />
    </clipPath>
    <clipPath
       clipPathUnits="userSpaceOnUse"
       id="clipPath10880">
      <path
         d="m 328.88,319.028 -0.63,-3.149 v -5.31 -31.86 h 63.81 v 31.86 h -26.102 v 5.31 l -0.719,3.149 z"
         transform="translate(-340.43853,-320.65151)"
         id="path10880" />
    </clipPath>
    <clipPath
       clipPathUnits="userSpaceOnUse"
       id="clipPath10882">
      <path
         d="m 328.88,319.028 -0.63,-3.149 v -5.31 -31.86 h 63.81 v 31.86 h -26.102 v 5.31 l -0.719,3.149 z"
         transform="translate(-338.61191,-320.65151)"
         id="path10882" />
    </clipPath>
    <clipPath
       clipPathUnits="userSpaceOnUse"
       id="clipPath10884">
      <path
         d="m 328.88,319.028 -0.63,-3.149 v -5.31 -31.86 h 63.81 v 31.86 h -26.102 v 5.31 l -0.719,3.149 z"
         transform="translate(-336.78521,-320.65151)"
         id="path10884" />
    </clipPath>
    <clipPath
       clipPathUnits="userSpaceOnUse"
       id="clipPath10886">
      <path
         d="m 328.88,319.028 -0.63,-3.149 v -5.31 -31.86 h 63.81 v 31.86 h -26.102 v 5.31 l -0.719,3.149 z"
         transform="translate(-334.95851,-320.65151)"
         id="path10886" />
    </clipPath>
    <clipPath
       clipPathUnits="userSpaceOnUse"
       id="clipPath10888">
      <path
         d="m 328.88,319.028 -0.63,-3.149 v -5.31 -31.86 h 63.81 v 31.86 h -26.102 v 5.31 l -0.719,3.149 z"
         transform="translate(-333.13181,-320.65151)"
         id="path10888" />
    </clipPath>
    <clipPath
       clipPathUnits="userSpaceOnUse"
       id="clipPath10891">
      <path
         d="m 313.542,268.989 h 93.315 v 119.017 h -93.315 z"
         transform="matrix(1,0,0,-1,-357.90783,268.76821)"
         id="path10891" />
    </clipPath>
  </defs>
  <sodipodi:namedview
     id="namedview1"
     pagecolor="#ffffff"
     bordercolor="#000000"
     borderopacity="0.25"
     inkscape:showpageshadow="2"
     inkscape:pageopacity="0.0"
     inkscape:pagecheckerboard="0"
     inkscape:deskcolor="#d1d1d1">
    <inkscape:page
       x="-5.50656e-05"
       y="1.0775607e-05"
       width="122.41992"
       height="157.69019"
       id="page2"
       margin="0"
       bleed="0" />
  </sodipodi:namedview>
  <g
     id="g10626"
     inkscape:groupmode="layer"
     inkscape:label="12"
     transform="translate(-9369.7703,-606.17787)">
    <g
       id="g12150">
      <path
         id="path10759"
         d="M 0,0 -0.09,0.18 -0.18,0.36 -0.27,0.45 V 0.63 L -0.36,0.81 -0.451,0.99 V 1.17 L -0.54,1.35 V 2.79 L -7.56,0.27 -7.74,0.18 -7.92,0.09 -8.1,0 -8.191,-0.09 -8.37,-0.18 -8.46,-0.36 -8.641,-0.45 -8.73,-0.63 -8.821,-0.81 -8.91,-0.99 -9,-1.17 -9.09,-1.35 v -0.18 l -0.09,-0.18 v -24.3 H 6.84 V -4.77 H 6.48 L 6.299,-4.68 H 6.21 L 6.03,-4.59 5.85,-4.5 H 5.67 L 5.489,-4.41 5.4,-4.32 5.22,-4.23 5.04,-4.05 4.95,-3.96 4.859,-3.87 4.679,-3.69 4.59,-3.6 4.5,-3.42 4.41,-3.24 H 4.23 L 4.049,-3.15 H 3.869 L 3.69,-3.06 3.51,-2.97 H 3.33 L 3.239,-2.88 3.059,-2.79 2.88,-2.7 2.7,-2.61 2.52,-2.52 2.34,-2.43 2.25,-2.34 2.07,-2.25 1.89,-2.16 1.799,-2.07 1.619,-1.98 1.53,-1.8 1.35,-1.71 1.26,-1.62 1.08,-1.44 0.989,-1.35 0.809,-1.17 0.72,-1.08 0.63,-0.9 0.45,-0.81 0.359,-0.63 0.27,-0.45 0.179,-0.36 0.09,-0.18 0,0"
         style="fill:none;stroke:#7b7979;stroke-width:0.375;stroke-linecap:round;stroke-linejoin:round;stroke-miterlimit:10;stroke-dasharray:none;stroke-opacity:1"
         transform="matrix(1.3333333,0,0,-1.3333333,9386.1004,616.3884)" />
      <path
         id="path10760"
         d="M 0,0 H 3.149 V 6.209 H 0 Z"
         style="fill:none;stroke:#7b7979;stroke-width:0.375;stroke-linecap:round;stroke-linejoin:round;stroke-miterlimit:10;stroke-dasharray:none;stroke-opacity:1"
         transform="matrix(1.3333333,0,0,-1.3333333,9408.0601,694.0272)" />
      <path
         id="path10761"
         d="M 0,0 H 3.149 V 7.291 H 0 Z"
         style="fill:none;stroke:#7b7979;stroke-width:0.375;stroke-linecap:round;stroke-linejoin:round;stroke-miterlimit:10;stroke-dasharray:none;stroke-opacity:1"
         transform="matrix(1.3333333,0,0,-1.3333333,9408.0601,674.4692)" />
      <path
         id="path10762"
         d="M 0,0 H -3.149 V -6.839 H 0 Z"
         style="fill:none;stroke:#7b7979;stroke-width:0.375;stroke-linecap:round;stroke-linejoin:round;stroke-miterlimit:10;stroke-dasharray:none;stroke-opacity:1"
         transform="matrix(1.3333333,0,0,-1.3333333,9472.7401,674.4692)" />
      <path
         id="path10763"
         d="M 0,0 H -3.149 V -5.671 H 0 Z"
         style="fill:none;stroke:#7b7979;stroke-width:0.375;stroke-linecap:round;stroke-linejoin:round;stroke-miterlimit:10;stroke-dasharray:none;stroke-opacity:1"
         transform="matrix(1.3333333,0,0,-1.3333333,9472.7401,664.74813)" />
      <path
         id="path10764"
         d="M 0,0 H 9.9 V 15.029 H 0 Z"
         style="fill:none;stroke:#7b7979;stroke-width:0.375;stroke-linecap:round;stroke-linejoin:round;stroke-miterlimit:10;stroke-dasharray:none;stroke-opacity:1"
         transform="matrix(1.3333333,0,0,-1.3333333,9474.9001,694.0272)" />
      <path
         id="path10765"
         d="M 0,0 H -3.149 V -6.209 H 0 Z"
         style="fill:none;stroke:#7b7979;stroke-width:0.375;stroke-linecap:round;stroke-linejoin:round;stroke-miterlimit:10;stroke-dasharray:none;stroke-opacity:1"
         transform="matrix(1.3333333,0,0,-1.3333333,9472.7401,685.74813)" />
      <path
         id="path10766"
         d="M 0,0 H 3.149 V 5.31 H 0 Z"
         style="fill:none;stroke:#7b7979;stroke-width:0.375;stroke-linecap:round;stroke-linejoin:round;stroke-miterlimit:10;stroke-dasharray:none;stroke-opacity:1"
         transform="matrix(1.3333333,0,0,-1.3333333,9408.0601,683.58813)" />
      <path
         id="path10767"
         d="M 0,0 H 15.21 V 13.95 H 0 Z"
         style="fill:none;stroke:#7b7979;stroke-width:0.375;stroke-linecap:round;stroke-linejoin:round;stroke-miterlimit:10;stroke-dasharray:none;stroke-opacity:1"
         transform="matrix(1.3333333,0,0,-1.3333333,9373.8601,694.0272)" />
      <path
         id="path10768"
         d="M 0,0 H 3.149 V 7.02 L 0,6.391 V 0"
         style="fill:none;stroke:#7b7979;stroke-width:0.375;stroke-linecap:round;stroke-linejoin:round;stroke-miterlimit:10;stroke-dasharray:none;stroke-opacity:1"
         transform="matrix(1.3333333,0,0,-1.3333333,9408.0603,662.70867)" />
      <path
         id="path10769"
         d="M 0,0 H 16.291 V 7.2 H -1.35 L 0,0"
         style="fill:none;stroke:#7b7979;stroke-width:0.375;stroke-linecap:round;stroke-linejoin:round;stroke-miterlimit:10;stroke-dasharray:none;stroke-opacity:1"
         transform="matrix(1.3333333,0,0,-1.3333333,9444.66,705.3088)" />
      <path
         id="path10770"
         d="m 0,0 -1.26,6.75 h -5.579 v -7.2 h 6.57 L 0,0"
         style="fill:none;stroke:#7b7979;stroke-width:0.375;stroke-linecap:round;stroke-linejoin:round;stroke-miterlimit:10;stroke-dasharray:none;stroke-opacity:1"
         transform="matrix(1.3333333,0,0,-1.3333333,9477.66,704.7092)" />
      <path
         id="path10771"
         d="M 0,0 H 3.149 L 2.429,8.01 H 0 V 0"
         style="fill:none;stroke:#7b7979;stroke-width:0.375;stroke-linecap:round;stroke-linejoin:round;stroke-miterlimit:10;stroke-dasharray:none;stroke-opacity:1"
         transform="matrix(1.3333333,0,0,-1.3333333,9468.5408,662.70867)" />
      <path
         id="path10772"
         d="M 0,0 H -0.18 L -0.36,0.09 -0.54,0.18 H -0.72 L -0.9,0.27 -0.99,0.36 -1.171,0.45 -1.35,0.63 -1.44,0.72 -1.62,0.81 -1.709,0.99 -1.89,1.08 -1.981,1.26 -2.07,1.35 -2.16,1.53 -2.25,1.71 -2.34,1.89 -2.43,1.98 -2.519,2.16 H -18.72 V -13.77 H -3.6 L 0,0"
         style="fill:none;stroke:#7b7979;stroke-width:0.375;stroke-linecap:round;stroke-linejoin:round;stroke-miterlimit:10;stroke-dasharray:none;stroke-opacity:1"
         transform="matrix(1.3333333,0,0,-1.3333333,9398.8201,655.3884)" />
      <path
         id="path10773"
         d="M 0,0 -4.05,-0.72 -7.56,-14.4 V -29.609 H 0 V 0"
         style="fill:none;stroke:#7b7979;stroke-width:0.375;stroke-linecap:round;stroke-linejoin:round;stroke-miterlimit:10;stroke-dasharray:none;stroke-opacity:1"
         transform="matrix(1.3333333,0,0,-1.3333333,9405.9003,654.54853)" />
      <path
         id="path10774"
         d="m 0,0 v -0.36 l -0.09,-0.18 -0.09,-0.18 -0.18,-0.09 -0.18,-0.18 h -0.09 l -0.18,-0.09 h -9.72 l -0.179,0.09 h -0.181 l -0.18,0.18 -0.09,0.09 -0.18,0.18 v 0.18 l -0.09,0.18 v 4.41 h -1.98 l -4.14,-0.72 v -30.779 h 6.031 l 0.538,0.538 0.541,-0.538 h 24.93 l 0.54,0.538 0.54,-0.538 h 5.851 V 4.23 H 19.8 L 19.26,3.69 18.81,4.23 H 4.95 L 4.41,3.69 3.87,4.23 H 0 V 0"
         style="fill:none;stroke:#7b7979;stroke-width:0.375;stroke-linecap:round;stroke-linejoin:round;stroke-miterlimit:10;stroke-dasharray:none;stroke-opacity:1"
         transform="matrix(1.3333333,0,0,-1.3333333,9437.8201,657.66827)" />
      <path
         id="path10775"
         d="m 0,0 h -0.359 l -0.18,0.09 -0.18,0.09 -0.09,0.18 -0.18,0.09 -0.09,0.18 V 2.52 L -1.26,2.61 -1.44,2.7 h -0.179 l -0.18,0.09 -0.18,0.09 -0.091,0.09 -0.18,0.09 -0.179,0.09 -0.09,0.18 -0.181,0.09 -0.089,0.09 -0.18,0.18 -0.09,0.09 -0.09,0.18 -0.18,0.18 -0.091,0.09 -0.09,0.18 -0.089,0.18 v 0.18 l -0.091,0.18 -0.089,0.09 -0.09,0.18 v 0.36 l -0.09,0.18 v 0.9 h -0.72 l 0.72,-7.92 v -2.519 h 1.889 l 0.18,-0.091 h 0.181 l 0.09,-0.18 0.179,-0.09 0.091,-0.18 0.089,-0.18 v -0.18 l 0.09,-0.18 V -5.399 H -3.959 V -8.55 h 3.42 v 1.17 h 0.99 v -1.17 h 1.71 v 1.17 H 3.24 v -1.17 h 2.701 v 3.151 h -2.79 v 0.719 l 0.089,0.18 0.09,0.18 0.091,0.18 0.09,0.09 0.18,0.18 H 3.87 l 0.18,0.091 H 5.941 V 2.43 H 3.781 V 0.81 L 3.691,0.63 3.601,0.45 3.511,0.36 3.421,0.18 3.24,0.09 3.06,0 H 2.161 V 2.43 H 0.451 V 0 H 0"
         style="fill:none;stroke:#7b7979;stroke-width:0.375;stroke-linecap:round;stroke-linejoin:round;stroke-miterlimit:10;stroke-dasharray:none;stroke-opacity:1"
         transform="matrix(1.3333333,0,0,-1.3333333,9480.1795,660.9084)" />
      <path
         id="path10776"
         d="m 0,0 v 47.251 l -0.09,0.18 v 0.18 l -0.09,0.18 -0.09,0.18 -0.181,0.09 -0.089,0.18 h -0.18 l -0.18,0.09 h -4.14 l -0.09,-0.09 -0.09,-0.09 -0.09,-0.09 v -2.61 h 2.07 v -4.77 l -0.09,-0.18 v -0.09 l -0.181,-0.18 -0.089,-0.18 -0.18,-0.09 -0.18,-0.09 h -5.22 l -0.179,0.09 H -9.54 l -0.18,0.09 -0.09,0.09 -0.18,0.18 -0.09,0.09 -0.09,0.18 -0.091,0.09 -0.089,0.18 -0.09,0.18 v 0.63 l 0.09,0.09 v 0.18 l 0.27,0.45 0.09,0.18 v 0.18 l 0.09,0.18 0.09,0.18 v 0.09 l 0.09,0.18 v 0.36 l 0.09,0.18 v 4.41 h -2.61 v -2.16 h 0.539 v -2.07 H -44.37 v -2.34 h 1.44 v -2.97 h -6.66 l -0.09,0.09 v 2.88 h 1.53 v 2.34 h -6.12 l -14.67,-2.61 h -0.359 l -0.181,0.09 h -0.18 l -0.18,0.18 -0.09,0.09 -0.09,0.18 -0.089,0.18 -0.092,0.18 v 21.87 h 1.081 v 2.16 h -3.15 v 1.89 h -0.089 v 0.09 l -0.092,0.09 -1.169,0.27 h -0.179 l -0.092,-0.09 v -1.08 l -0.089,-0.09 h -0.54 l -0.181,0.09 h -0.179 l -0.18,0.09 -0.09,0.09 h -0.18 l -0.181,0.09 -0.179,0.09 -0.18,0.09 -0.09,0.09 -0.181,0.09 -0.18,0.18 -0.089,0.09 -0.18,0.09 -0.09,0.18 -0.179,0.09 -0.092,0.18 -0.089,0.09 -0.09,0.18 -0.09,0.18 -0.09,0.18 -0.09,0.09 -0.09,0.18 v 0.09 l -0.09,0.18 v 2.61 l 0.09,0.09 h 0.09 l 0.09,0.09 v 0.09 l 2.25,0.72 h 1.08 l 0.089,-0.09 v -1.08 l 0.092,-0.09 h 0.179 l 1.169,0.27 0.092,0.09 v 0.09 h 0.089 v 1.89 h 2.069 v 1.08 h -5.31 l -12.419,-4.5 -0.179,-0.09 -0.181,-0.09 -0.18,-0.09 -0.18,-0.09 -0.09,-0.09 -0.18,-0.09 -0.18,-0.09 -0.18,-0.09 -0.09,-0.09 -0.179,-0.09 -0.092,-0.18 -0.18,-0.09 -0.089,-0.18 -0.18,-0.09 -0.09,-0.18 -0.09,-0.09 -0.181,-0.18 -0.089,-0.18 -0.09,-0.09 -0.09,-0.18 -0.09,-0.18 -0.09,-0.18 -0.09,-0.18 -0.09,-0.18 v -0.18 l -0.09,-0.09 -0.091,-0.18 v -0.18 l -0.089,-0.18 v -0.36 l -0.09,-0.27 v -67.14 l 0.09,-0.09 v -0.09 l 0.089,-0.091 0.181,-0.089 h 0.18 l 1.17,0.089 h 0.36 l 0.18,0.091 0.09,0.09 h 0.18 l 0.09,0.18 0.18,0.089 0.541,0.541 0.089,0.089 0.09,0.18 0.09,0.091 0.09,0.089 v 0.181 l 0.09,0.09 V 1.44 l 0.269,1.44 h -1.349 v 4.771 l 0.09,0.089 0.09,0.091 0.09,0.09 h 6.12 l 0.089,-0.09 h 0.091 V 7.56 l -0.99,-5.579 v -0.27 h 0.089 V 1.62 L -82.08,0 l 0.09,-0.179 0.09,-0.09 0.09,-0.09 0.18,-0.091 0.09,-0.089 h 0.991 l 0.179,0.089 0.09,0.091 0.09,0.09 0.179,0.09 0.091,0.09 1.08,1.529 0.269,1.44 H -80.91 L -81,2.971 v 0.18 l 0.81,4.5 V 7.74 l 0.09,0.091 0.089,0.09 h 18.091 l 0.54,0.36 0.54,-0.36 h 21.78 l 0.09,-0.09 V 7.74 l 0.09,-0.089 0.809,-4.5 V 2.971 H -38.16 V 2.88 h -2.34 l 0.179,-1.44 1.171,-1.529 0.09,-0.09 0.09,-0.09 0.18,-0.09 0.089,-0.091 0.092,-0.089 h 7.288 l 0.541,0.27 0.54,-0.27 h 13.68 l 0.54,0.27 0.629,-0.27 h 5.401 l 0.18,0.089 0.18,0.091 0.09,0.09 0.089,0.09 L -9.359,0 -8.37,1.62 V 1.981 L -9.359,7.56 V 7.651 L -9.27,7.74 v 0.091 l 0.09,0.09 h 6.21 L -2.88,7.831 -2.79,7.74 V 7.651 L -2.701,7.56 V 2.88 H -4.049 L -3.78,1.44 V 1.171 L -3.69,0.99 -3.6,0.901 V 0.81 L -3.511,0.63 -3.42,0.541 -2.79,0 l 0.089,-0.089 0.181,-0.18 h 0.09 l 0.18,-0.09 0.179,-0.091 h 0.361 l 1.08,-0.089 h 0.271 l 0.089,0.089 0.09,0.091 0.09,0.09 v 0.09 L 0,0"
         style="fill:none;stroke:#7b7979;stroke-width:0.375;stroke-linecap:round;stroke-linejoin:round;stroke-miterlimit:10;stroke-dasharray:none;stroke-opacity:1"
         transform="matrix(1.3333333,0,0,-1.3333333,9491.9401,707.7092)" />
      <path
         id="path10777"
         d="M 0,0 -43.247,-43.247"
         style="fill:none;stroke:#f03d21;stroke-width:0.3;stroke-linecap:butt;stroke-linejoin:miter;stroke-miterlimit:10;stroke-dasharray:none;stroke-opacity:1"
         transform="matrix(1.3333333,0,0,-1.3333333,9509.3611,694.98467)"
         clip-path="url(#clipPath10778)" />
      <path
         id="path10779"
         d="M 0,0 -43.247,-43.247"
         style="fill:none;stroke:#f03d21;stroke-width:0.3;stroke-linecap:butt;stroke-linejoin:miter;stroke-miterlimit:10;stroke-dasharray:none;stroke-opacity:1"
         transform="matrix(1.3333333,0,0,-1.3333333,9506.9256,694.98467)"
         clip-path="url(#clipPath10780)" />
      <path
         id="path10781"
         d="M 0,0 -43.247,-43.247"
         style="fill:none;stroke:#f03d21;stroke-width:0.3;stroke-linecap:butt;stroke-linejoin:miter;stroke-miterlimit:10;stroke-dasharray:none;stroke-opacity:1"
         transform="matrix(1.3333333,0,0,-1.3333333,9504.49,694.98467)"
         clip-path="url(#clipPath10782)" />
      <path
         id="path10783"
         d="M 0,0 -43.247,-43.247"
         style="fill:none;stroke:#f03d21;stroke-width:0.3;stroke-linecap:butt;stroke-linejoin:miter;stroke-miterlimit:10;stroke-dasharray:none;stroke-opacity:1"
         transform="matrix(1.3333333,0,0,-1.3333333,9502.0545,694.98467)"
         clip-path="url(#clipPath10784)" />
      <path
         id="path10785"
         d="M 0,0 -43.247,-43.247"
         style="fill:none;stroke:#f03d21;stroke-width:0.3;stroke-linecap:butt;stroke-linejoin:miter;stroke-miterlimit:10;stroke-dasharray:none;stroke-opacity:1"
         transform="matrix(1.3333333,0,0,-1.3333333,9499.6189,694.98467)"
         clip-path="url(#clipPath10786)" />
      <path
         id="path10787"
         d="M 0,0 -43.247,-43.247"
         style="fill:none;stroke:#f03d21;stroke-width:0.3;stroke-linecap:butt;stroke-linejoin:miter;stroke-miterlimit:10;stroke-dasharray:none;stroke-opacity:1"
         transform="matrix(1.3333333,0,0,-1.3333333,9497.1835,694.98467)"
         clip-path="url(#clipPath10788)" />
      <path
         id="path10789"
         d="M 0,0 -43.247,-43.247"
         style="fill:none;stroke:#f03d21;stroke-width:0.3;stroke-linecap:butt;stroke-linejoin:miter;stroke-miterlimit:10;stroke-dasharray:none;stroke-opacity:1"
         transform="matrix(1.3333333,0,0,-1.3333333,9494.7477,694.98467)"
         clip-path="url(#clipPath10790)" />
      <path
         id="path10791"
         d="M 0,0 -43.247,-43.247"
         style="fill:none;stroke:#f03d21;stroke-width:0.3;stroke-linecap:butt;stroke-linejoin:miter;stroke-miterlimit:10;stroke-dasharray:none;stroke-opacity:1"
         transform="matrix(1.3333333,0,0,-1.3333333,9492.3123,694.98467)"
         clip-path="url(#clipPath10792)" />
      <path
         id="path10793"
         d="M 0,0 -43.247,-43.247"
         style="fill:none;stroke:#f03d21;stroke-width:0.3;stroke-linecap:butt;stroke-linejoin:miter;stroke-miterlimit:10;stroke-dasharray:none;stroke-opacity:1"
         transform="matrix(1.3333333,0,0,-1.3333333,9489.8768,694.98467)"
         clip-path="url(#clipPath10794)" />
      <path
         id="path10795"
         d="M 0,0 -43.247,-43.247"
         style="fill:none;stroke:#f03d21;stroke-width:0.3;stroke-linecap:butt;stroke-linejoin:miter;stroke-miterlimit:10;stroke-dasharray:none;stroke-opacity:1"
         transform="matrix(1.3333333,0,0,-1.3333333,9487.4412,694.98467)"
         clip-path="url(#clipPath10796)" />
      <path
         id="path10797"
         d="M 0,0 -43.247,-43.247"
         style="fill:none;stroke:#f03d21;stroke-width:0.3;stroke-linecap:butt;stroke-linejoin:miter;stroke-miterlimit:10;stroke-dasharray:none;stroke-opacity:1"
         transform="matrix(1.3333333,0,0,-1.3333333,9485.0057,694.98467)"
         clip-path="url(#clipPath10798)" />
      <path
         id="path10799"
         d="M 0,0 -43.247,-43.247"
         style="fill:none;stroke:#f03d21;stroke-width:0.3;stroke-linecap:butt;stroke-linejoin:miter;stroke-miterlimit:10;stroke-dasharray:none;stroke-opacity:1"
         transform="matrix(1.3333333,0,0,-1.3333333,9482.5701,694.98467)"
         clip-path="url(#clipPath10800)" />
      <path
         id="path10801"
         d="M 0,0 -43.247,-43.247"
         style="fill:none;stroke:#f03d21;stroke-width:0.3;stroke-linecap:butt;stroke-linejoin:miter;stroke-miterlimit:10;stroke-dasharray:none;stroke-opacity:1"
         transform="matrix(1.3333333,0,0,-1.3333333,9480.1347,694.98467)"
         clip-path="url(#clipPath10802)" />
      <path
         id="path10803"
         d="M 0,0 -43.247,-43.247"
         style="fill:none;stroke:#f03d21;stroke-width:0.3;stroke-linecap:butt;stroke-linejoin:miter;stroke-miterlimit:10;stroke-dasharray:none;stroke-opacity:1"
         transform="matrix(1.3333333,0,0,-1.3333333,9477.6991,694.98467)"
         clip-path="url(#clipPath10804)" />
      <path
         id="path10805"
         d="M 0,0 -43.247,-43.247"
         style="fill:none;stroke:#f03d21;stroke-width:0.3;stroke-linecap:butt;stroke-linejoin:miter;stroke-miterlimit:10;stroke-dasharray:none;stroke-opacity:1"
         transform="matrix(1.3333333,0,0,-1.3333333,9475.2635,694.98467)"
         clip-path="url(#clipPath10806)" />
      <path
         id="path10807"
         d="M 0,0 -43.247,-43.247"
         style="fill:none;stroke:#f03d21;stroke-width:0.3;stroke-linecap:butt;stroke-linejoin:miter;stroke-miterlimit:10;stroke-dasharray:none;stroke-opacity:1"
         transform="matrix(1.3333333,0,0,-1.3333333,9472.828,694.98467)"
         clip-path="url(#clipPath10808)" />
      <path
         id="path10809"
         d="M 0,0 -43.247,-43.247"
         style="fill:none;stroke:#f03d21;stroke-width:0.3;stroke-linecap:butt;stroke-linejoin:miter;stroke-miterlimit:10;stroke-dasharray:none;stroke-opacity:1"
         transform="matrix(1.3333333,0,0,-1.3333333,9470.3924,694.98467)"
         clip-path="url(#clipPath10810)" />
      <path
         id="path10811"
         d="M 0,0 -43.247,-43.247"
         style="fill:none;stroke:#f03d21;stroke-width:0.3;stroke-linecap:butt;stroke-linejoin:miter;stroke-miterlimit:10;stroke-dasharray:none;stroke-opacity:1"
         transform="matrix(1.3333333,0,0,-1.3333333,9467.9568,694.98467)"
         clip-path="url(#clipPath10812)" />
      <path
         id="path10813"
         d="M 0,0 -43.247,-43.247"
         style="fill:none;stroke:#f03d21;stroke-width:0.3;stroke-linecap:butt;stroke-linejoin:miter;stroke-miterlimit:10;stroke-dasharray:none;stroke-opacity:1"
         transform="matrix(1.3333333,0,0,-1.3333333,9465.5213,694.98467)"
         clip-path="url(#clipPath10814)" />
      <path
         id="path10815"
         d="M 0,0 -43.247,-43.247"
         style="fill:none;stroke:#f03d21;stroke-width:0.3;stroke-linecap:butt;stroke-linejoin:miter;stroke-miterlimit:10;stroke-dasharray:none;stroke-opacity:1"
         transform="matrix(1.3333333,0,0,-1.3333333,9463.0857,694.98467)"
         clip-path="url(#clipPath10816)" />
      <path
         id="path10817"
         d="M 0,0 -43.247,-43.247"
         style="fill:none;stroke:#f03d21;stroke-width:0.3;stroke-linecap:butt;stroke-linejoin:miter;stroke-miterlimit:10;stroke-dasharray:none;stroke-opacity:1"
         transform="matrix(1.3333333,0,0,-1.3333333,9460.6503,694.98467)"
         clip-path="url(#clipPath10818)" />
      <path
         id="path10819"
         d="M 0,0 -43.247,-43.247"
         style="fill:none;stroke:#f03d21;stroke-width:0.3;stroke-linecap:butt;stroke-linejoin:miter;stroke-miterlimit:10;stroke-dasharray:none;stroke-opacity:1"
         transform="matrix(1.3333333,0,0,-1.3333333,9458.2145,694.98467)"
         clip-path="url(#clipPath10820)" />
      <path
         id="path10821"
         d="M 0,0 -43.247,-43.247"
         style="fill:none;stroke:#f03d21;stroke-width:0.3;stroke-linecap:butt;stroke-linejoin:miter;stroke-miterlimit:10;stroke-dasharray:none;stroke-opacity:1"
         transform="matrix(1.3333333,0,0,-1.3333333,9455.7791,694.98467)"
         clip-path="url(#clipPath10822)" />
      <path
         id="path10823"
         d="M 0,0 -43.247,-43.247"
         style="fill:none;stroke:#f03d21;stroke-width:0.3;stroke-linecap:butt;stroke-linejoin:miter;stroke-miterlimit:10;stroke-dasharray:none;stroke-opacity:1"
         transform="matrix(1.3333333,0,0,-1.3333333,9528.8768,694.98467)"
         clip-path="url(#clipPath10824)" />
      <path
         id="path10825"
         d="M 0,0 -43.247,-43.247"
         style="fill:none;stroke:#f03d21;stroke-width:0.3;stroke-linecap:butt;stroke-linejoin:miter;stroke-miterlimit:10;stroke-dasharray:none;stroke-opacity:1"
         transform="matrix(1.3333333,0,0,-1.3333333,9526.4412,694.98467)"
         clip-path="url(#clipPath10826)" />
      <path
         id="path10827"
         d="M 0,0 -43.247,-43.247"
         style="fill:none;stroke:#f03d21;stroke-width:0.3;stroke-linecap:butt;stroke-linejoin:miter;stroke-miterlimit:10;stroke-dasharray:none;stroke-opacity:1"
         transform="matrix(1.3333333,0,0,-1.3333333,9524.0057,694.98467)"
         clip-path="url(#clipPath10828)" />
      <path
         id="path10829"
         d="M 0,0 -43.247,-43.247"
         style="fill:none;stroke:#f03d21;stroke-width:0.3;stroke-linecap:butt;stroke-linejoin:miter;stroke-miterlimit:10;stroke-dasharray:none;stroke-opacity:1"
         transform="matrix(1.3333333,0,0,-1.3333333,9521.5701,694.98467)"
         clip-path="url(#clipPath10830)" />
      <path
         id="path10831"
         d="M 0,0 -43.247,-43.247"
         style="fill:none;stroke:#f03d21;stroke-width:0.3;stroke-linecap:butt;stroke-linejoin:miter;stroke-miterlimit:10;stroke-dasharray:none;stroke-opacity:1"
         transform="matrix(1.3333333,0,0,-1.3333333,9519.1347,694.98467)"
         clip-path="url(#clipPath10832)" />
      <path
         id="path10833"
         d="M 0,0 -43.247,-43.247"
         style="fill:none;stroke:#f03d21;stroke-width:0.3;stroke-linecap:butt;stroke-linejoin:miter;stroke-miterlimit:10;stroke-dasharray:none;stroke-opacity:1"
         transform="matrix(1.3333333,0,0,-1.3333333,9516.6991,694.98467)"
         clip-path="url(#clipPath10834)" />
      <path
         id="path10835"
         d="M 0,0 -43.247,-43.247"
         style="fill:none;stroke:#f03d21;stroke-width:0.3;stroke-linecap:butt;stroke-linejoin:miter;stroke-miterlimit:10;stroke-dasharray:none;stroke-opacity:1"
         transform="matrix(1.3333333,0,0,-1.3333333,9514.2635,694.98467)"
         clip-path="url(#clipPath10836)" />
      <path
         id="path10837"
         d="M 0,0 -43.247,-43.247"
         style="fill:none;stroke:#f03d21;stroke-width:0.3;stroke-linecap:butt;stroke-linejoin:miter;stroke-miterlimit:10;stroke-dasharray:none;stroke-opacity:1"
         transform="matrix(1.3333333,0,0,-1.3333333,9511.828,694.98467)"
         clip-path="url(#clipPath10838)" />
      <path
         id="path10839"
         d="M 0,0 -43.247,-43.247"
         style="fill:none;stroke:#f03d21;stroke-width:0.3;stroke-linecap:butt;stroke-linejoin:miter;stroke-miterlimit:10;stroke-dasharray:none;stroke-opacity:1"
         transform="matrix(1.3333333,0,0,-1.3333333,9453.3436,694.98467)"
         clip-path="url(#clipPath10840)" />
      <path
         id="path10841"
         d="M 0,0 -43.247,-43.247"
         style="fill:none;stroke:#f03d21;stroke-width:0.3;stroke-linecap:butt;stroke-linejoin:miter;stroke-miterlimit:10;stroke-dasharray:none;stroke-opacity:1"
         transform="matrix(1.3333333,0,0,-1.3333333,9450.908,694.98467)"
         clip-path="url(#clipPath10842)" />
      <path
         id="path10843"
         d="M 0,0 -43.247,-43.247"
         style="fill:none;stroke:#f03d21;stroke-width:0.3;stroke-linecap:butt;stroke-linejoin:miter;stroke-miterlimit:10;stroke-dasharray:none;stroke-opacity:1"
         transform="matrix(1.3333333,0,0,-1.3333333,9448.4725,694.98467)"
         clip-path="url(#clipPath10844)" />
      <path
         id="path10845"
         d="M 0,0 -43.247,-43.247"
         style="fill:none;stroke:#f03d21;stroke-width:0.3;stroke-linecap:butt;stroke-linejoin:miter;stroke-miterlimit:10;stroke-dasharray:none;stroke-opacity:1"
         transform="matrix(1.3333333,0,0,-1.3333333,9446.0369,694.98467)"
         clip-path="url(#clipPath10846)" />
      <path
         id="path10847"
         d="M 0,0 -43.247,-43.247"
         style="fill:none;stroke:#f03d21;stroke-width:0.3;stroke-linecap:butt;stroke-linejoin:miter;stroke-miterlimit:10;stroke-dasharray:none;stroke-opacity:1"
         transform="matrix(1.3333333,0,0,-1.3333333,9443.6015,694.98467)"
         clip-path="url(#clipPath10848)" />
      <path
         id="path10849"
         d="M 0,0 -43.247,-43.247"
         style="fill:none;stroke:#f03d21;stroke-width:0.3;stroke-linecap:butt;stroke-linejoin:miter;stroke-miterlimit:10;stroke-dasharray:none;stroke-opacity:1"
         transform="matrix(1.3333333,0,0,-1.3333333,9441.1659,694.98467)"
         clip-path="url(#clipPath10850)" />
      <path
         id="path10851"
         d="M 0,0 -43.247,-43.247"
         style="fill:none;stroke:#f03d21;stroke-width:0.3;stroke-linecap:butt;stroke-linejoin:miter;stroke-miterlimit:10;stroke-dasharray:none;stroke-opacity:1"
         transform="matrix(1.3333333,0,0,-1.3333333,9438.7303,694.98467)"
         clip-path="url(#clipPath10852)" />
      <path
         id="path10853"
         d="M 0,0 -43.247,-43.247"
         style="fill:none;stroke:#f03d21;stroke-width:0.3;stroke-linecap:butt;stroke-linejoin:miter;stroke-miterlimit:10;stroke-dasharray:none;stroke-opacity:1"
         transform="matrix(1.3333333,0,0,-1.3333333,9436.2948,694.98467)"
         clip-path="url(#clipPath10854)" />
      <path
         id="path10855"
         d="M 0,0 -43.247,-43.247"
         style="fill:none;stroke:#f03d21;stroke-width:0.3;stroke-linecap:butt;stroke-linejoin:miter;stroke-miterlimit:10;stroke-dasharray:none;stroke-opacity:1"
         transform="matrix(1.3333333,0,0,-1.3333333,9433.8592,694.98467)"
         clip-path="url(#clipPath10856)" />
      <path
         id="path10857"
         d="M 0,0 -43.247,-43.247"
         style="fill:none;stroke:#f03d21;stroke-width:0.3;stroke-linecap:butt;stroke-linejoin:miter;stroke-miterlimit:10;stroke-dasharray:none;stroke-opacity:1"
         transform="matrix(1.3333333,0,0,-1.3333333,9431.4236,694.98467)"
         clip-path="url(#clipPath10858)" />
      <path
         id="path10859"
         d="M 0,0 -43.247,-43.247"
         style="fill:none;stroke:#f03d21;stroke-width:0.3;stroke-linecap:butt;stroke-linejoin:miter;stroke-miterlimit:10;stroke-dasharray:none;stroke-opacity:1"
         transform="matrix(1.3333333,0,0,-1.3333333,9428.9881,694.98467)"
         clip-path="url(#clipPath10860)" />
      <path
         id="path10861"
         d="M 0,0 -43.247,-43.247"
         style="fill:none;stroke:#f03d21;stroke-width:0.3;stroke-linecap:butt;stroke-linejoin:miter;stroke-miterlimit:10;stroke-dasharray:none;stroke-opacity:1"
         transform="matrix(1.3333333,0,0,-1.3333333,9426.5525,694.98467)"
         clip-path="url(#clipPath10862)" />
      <path
         id="path10863"
         d="M 0,0 -43.247,-43.247"
         style="fill:none;stroke:#f03d21;stroke-width:0.3;stroke-linecap:butt;stroke-linejoin:miter;stroke-miterlimit:10;stroke-dasharray:none;stroke-opacity:1"
         transform="matrix(1.3333333,0,0,-1.3333333,9424.1171,694.98467)"
         clip-path="url(#clipPath10864)" />
      <path
         id="path10865"
         d="M 0,0 -43.247,-43.247"
         style="fill:none;stroke:#f03d21;stroke-width:0.3;stroke-linecap:butt;stroke-linejoin:miter;stroke-miterlimit:10;stroke-dasharray:none;stroke-opacity:1"
         transform="matrix(1.3333333,0,0,-1.3333333,9421.6813,694.98467)"
         clip-path="url(#clipPath10866)" />
      <path
         id="path10867"
         d="M 0,0 -43.247,-43.247"
         style="fill:none;stroke:#f03d21;stroke-width:0.3;stroke-linecap:butt;stroke-linejoin:miter;stroke-miterlimit:10;stroke-dasharray:none;stroke-opacity:1"
         transform="matrix(1.3333333,0,0,-1.3333333,9419.2459,694.98467)"
         clip-path="url(#clipPath10868)" />
      <path
         id="path10869"
         d="M 0,0 -43.247,-43.247"
         style="fill:none;stroke:#f03d21;stroke-width:0.3;stroke-linecap:butt;stroke-linejoin:miter;stroke-miterlimit:10;stroke-dasharray:none;stroke-opacity:1"
         transform="matrix(1.3333333,0,0,-1.3333333,9416.8103,694.98467)"
         clip-path="url(#clipPath10870)" />
      <path
         id="path10871"
         d="M 0,0 -43.247,-43.247"
         style="fill:none;stroke:#f03d21;stroke-width:0.3;stroke-linecap:butt;stroke-linejoin:miter;stroke-miterlimit:10;stroke-dasharray:none;stroke-opacity:1"
         transform="matrix(1.3333333,0,0,-1.3333333,9414.3748,694.98467)"
         clip-path="url(#clipPath10872)" />
      <path
         id="path10873"
         d="M 0,0 -43.247,-43.247"
         style="fill:none;stroke:#f03d21;stroke-width:0.3;stroke-linecap:butt;stroke-linejoin:miter;stroke-miterlimit:10;stroke-dasharray:none;stroke-opacity:1"
         transform="matrix(1.3333333,0,0,-1.3333333,9411.9393,694.98467)"
         clip-path="url(#clipPath10874)" />
      <path
         id="path10875"
         d="M 0,0 -43.247,-43.247"
         style="fill:none;stroke:#f03d21;stroke-width:0.3;stroke-linecap:butt;stroke-linejoin:miter;stroke-miterlimit:10;stroke-dasharray:none;stroke-opacity:1"
         transform="matrix(1.3333333,0,0,-1.3333333,9409.5037,694.98467)"
         clip-path="url(#clipPath10876)" />
      <path
         id="path10877"
         d="M 0,0 -43.247,-43.247"
         style="fill:none;stroke:#f03d21;stroke-width:0.3;stroke-linecap:butt;stroke-linejoin:miter;stroke-miterlimit:10;stroke-dasharray:none;stroke-opacity:1"
         transform="matrix(1.3333333,0,0,-1.3333333,9407.0683,694.98467)"
         clip-path="url(#clipPath10878)" />
      <path
         id="path10879"
         d="M 0,0 -43.247,-43.247"
         style="fill:none;stroke:#f03d21;stroke-width:0.3;stroke-linecap:butt;stroke-linejoin:miter;stroke-miterlimit:10;stroke-dasharray:none;stroke-opacity:1"
         transform="matrix(1.3333333,0,0,-1.3333333,9404.6327,694.98467)"
         clip-path="url(#clipPath10880)" />
      <path
         id="path10881"
         d="M 0,0 -43.247,-43.247"
         style="fill:none;stroke:#f03d21;stroke-width:0.3;stroke-linecap:butt;stroke-linejoin:miter;stroke-miterlimit:10;stroke-dasharray:none;stroke-opacity:1"
         transform="matrix(1.3333333,0,0,-1.3333333,9402.1972,694.98467)"
         clip-path="url(#clipPath10882)" />
      <path
         id="path10883"
         d="M 0,0 -43.247,-43.247"
         style="fill:none;stroke:#f03d21;stroke-width:0.3;stroke-linecap:butt;stroke-linejoin:miter;stroke-miterlimit:10;stroke-dasharray:none;stroke-opacity:1"
         transform="matrix(1.3333333,0,0,-1.3333333,9399.7616,694.98467)"
         clip-path="url(#clipPath10884)" />
      <path
         id="path10885"
         d="M 0,0 -43.247,-43.247"
         style="fill:none;stroke:#f03d21;stroke-width:0.3;stroke-linecap:butt;stroke-linejoin:miter;stroke-miterlimit:10;stroke-dasharray:none;stroke-opacity:1"
         transform="matrix(1.3333333,0,0,-1.3333333,9397.326,694.98467)"
         clip-path="url(#clipPath10886)" />
      <path
         id="path10887"
         d="M 0,0 -43.247,-43.247"
         style="fill:none;stroke:#f03d21;stroke-width:0.3;stroke-linecap:butt;stroke-linejoin:miter;stroke-miterlimit:10;stroke-dasharray:none;stroke-opacity:1"
         transform="matrix(1.3333333,0,0,-1.3333333,9394.8904,694.98467)"
         clip-path="url(#clipPath10888)" />
      <path
         id="path10889"
         d="m 0,0 v 31.86 h -26.101 v 5.311 l -0.72,3.149 H -63.18 l -0.63,-3.149 V 31.86 0 Z"
         style="fill:none;stroke:#f03d21;stroke-width:0.75;stroke-linecap:round;stroke-linejoin:round;stroke-miterlimit:10;stroke-dasharray:none;stroke-opacity:1"
         transform="matrix(1.3333333,0,0,-1.3333333,9473.4607,750.9084)" />
      <path
         id="path10890"
         d="m 3.1410281,-1.7331281 c 0,0.2753906 -0.035156,0.524414 -0.1054687,0.74999997 -0.064453,0.21972657 -0.1582032,0.41015625 -0.28125,0.57421875 -0.1171875,0.1640625 -0.2636719,0.29296875 -0.4335938,0.38671875 -0.1640625,0.08496094 -0.3486328,0.12890625 -0.5507812,0.12890625 -0.2578125,0 -0.4746094,-0.06445312 -0.6445313,-0.1875 C 0.95255156,-0.20383125 0.81192656,-0.36789375 0.70352812,-0.57297188 0.60098906,-0.77512031 0.52774687,-1.0007063 0.48087187,-1.2526594 c -0.0410156,-0.2490234 -0.0585938,-0.4980469 -0.0585938,-0.75 0,-0.46875 0.046875,-0.890625 0.140625,-1.265625 0.09375,-0.3808594 0.22558594,-0.7060547 0.3984375,-0.9726562 C 1.1312624,-4.5046125 1.3363405,-4.7096906 1.5707155,-4.8503156 1.81095,-4.9968 2.0863406,-5.0729719 2.3910281,-5.0729719 c 0.1171875,0 0.2285156,0.017578 0.3398438,0.046875 0.1171875,0.023437 0.2167968,0.055664 0.3046875,0.09375 l -0.1523438,0.421875 c -0.079102,-0.023437 -0.1611328,-0.046875 -0.2460937,-0.070312 -0.079102,-0.023437 -0.1728516,-0.035156 -0.28125,-0.035156 -0.1816407,0 -0.3457032,0.046875 -0.4921875,0.140625 -0.1494141,0.087891 -0.28125,0.2080078 -0.3984375,0.3632812 -0.1113282,0.1494141 -0.2050782,0.3339844 -0.28125,0.5507813 -0.070312,0.2197265 -0.1171875,0.4541015 -0.140625,0.703125 0.1171875,-0.1875 0.2519531,-0.319336 0.4101562,-0.3984375 0.1552735,-0.076172 0.319336,-0.1171875 0.4921875,-0.1171875 0.2109375,0 0.3896485,0.046875 0.5390625,0.140625 0.1552735,0.09375 0.28125,0.2197265 0.375,0.375 0.099609,0.149414 0.1699219,0.3222656 0.2109375,0.515625 0.046875,0.196289 0.070312,0.3984375 0.070312,0.6093743 z m -0.5625,0.011719 c 0,-0.375 -0.070312,-0.6591797 -0.2109375,-0.8554687 -0.1347656,-0.1933594 -0.3339844,-0.2929688 -0.5976562,-0.2929688 -0.2519532,0 -0.4453125,0.099609 -0.5859375,0.2929688 -0.1347657,0.196289 -0.19921878,0.477539 -0.19921878,0.84375 0,0.430664 0.0644531,0.75878904 0.19921878,0.98437497 0.140625,0.22851563 0.3398437,0.33984375 0.5976562,0.33984375 0.2490235,0 0.4453125,-0.10839843 0.5859375,-0.328125 0.140625,-0.22558593 0.2109375,-0.55371092 0.2109375,-0.98437502 z m 4.2363281,-0.8085937 c 0,0.8759765 -0.1259765,1.53515622 -0.375,1.98046872 -0.2519531,0.43945313 -0.618164,0.65625 -1.1015625,0.65625 -0.2753906,0 -0.5039062,-0.0703125 -0.6914062,-0.2109375 C 4.4652469,-0.24484688 4.3187625,-0.4264875 4.201575,-0.65500313 4.0902469,-0.88937813 4.014075,-1.1589094 3.9672,-1.4635969 3.920325,-1.7682844 3.8968875,-2.0876203 3.8968875,-2.4245344 c 0,-0.8496094 0.1289062,-1.5029297 0.3867187,-1.9570312 0.2636719,-0.459961 0.6386719,-0.6914063 1.125,-0.6914063 0.459961,0 0.8085938,0.2167969 1.0429688,0.6445313 0.2402344,0.430664 0.3632812,1.0634765 0.3632812,1.8984378 z m -0.5742187,0 c 0,-0.1083985 -0.00586,-0.2138672 -0.011719,-0.3164063 0,-0.1083984 -0.00586,-0.2109375 -0.011719,-0.3046875 l -1.6171875,1.921875 c 0.014648,0.064453 0.029297,0.1259766 0.046875,0.1875 0.023437,0.0556641 0.049805,0.11132815 0.082031,0.16406252 0.070312,0.15820313 0.1523438,0.27539063 0.2460938,0.3515625 0.099609,0.0791016 0.2255859,0.1171875 0.375,0.1171875 0.1640625,0 0.2988281,-0.0410156 0.4101562,-0.12890625 0.1083985,-0.09375 0.1992188,-0.22558593 0.2695313,-0.3984375 0.070312,-0.18749997 0.1201172,-0.41308597 0.1523437,-0.67968747 0.038086,-0.272461 0.058594,-0.5771485 0.058594,-0.9140625 z m -1.78125,0.046875 c 0,0.1259765 0,0.243164 0,0.3515625 0.00586,0.1113281 0.017578,0.2167968 0.035156,0.3164062 L 6.12345,-3.7604719 c -0.140625,-0.5302734 -0.3925781,-0.796875 -0.75,-0.796875 -0.2900391,0 -0.515625,0.1845703 -0.6796875,0.5507813 -0.1582031,0.3691406 -0.234375,0.8759765 -0.234375,1.5234378 z m 0,0"
         style="fill:#f03d21;fill-opacity:1;fill-rule:nonzero;stroke:none"
         aria-label="60"
         transform="matrix(1.3333333,0,0,1.3333333,9427.9251,764.1624)"
         clip-path="url(#clipPath10891)" />
      <path
         id="path10892"
         d="m 3.0716234,-1.3717844 c 0,0.2285156 -0.035156,0.43066409 -0.1054687,0.60937502 -0.070312,0.18164063 -0.1757813,0.33691407 -0.3164063,0.46875 -0.1347656,0.12597657 -0.2929687,0.22265625 -0.4804687,0.292968755 -0.1875,0.070312495 -0.3955078,0.105468745 -0.6210938,0.105468745 -0.2197265,0 -0.4335937,-0.02929687 -0.64453121,-0.08203125 -0.20507813,-0.05273437 -0.375,-0.12890625 -0.515625,-0.22265625 l 0.1875,-0.45703125 c 0.1640625,0.0878906 0.32226562,0.14941407 0.48046871,0.1875 0.1640625,0.0410156 0.3310547,0.0585938 0.5039063,0.0585938 0.3046875,0 0.5390625,-0.0849609 0.703125,-0.2578125 0.1640625,-0.16992187 0.2460937,-0.41308587 0.2460937,-0.72656247 0,-0.6562501 -0.3486328,-0.9843751 -1.0429687,-0.9843751 H 1.1263109 v -0.4804687 h 0.328125 c 0.2871094,0 0.515625,-0.084961 0.6796875,-0.2578124 0.1640625,-0.178711 0.2460938,-0.413086 0.2460938,-0.7031251 0,-0.2343749 -0.064453,-0.4218749 -0.1875,-0.5624999 -0.1259766,-0.1464844 -0.2988281,-0.2226563 -0.515625,-0.2226563 -0.1816406,0 -0.3398438,0.041016 -0.4804688,0.1171875 -0.140625,0.079102 -0.27539059,0.1875 -0.39843746,0.328125 l -0.33984375,-0.328125 c 0.1640625,-0.1875 0.34277343,-0.3310547 0.5390625,-0.4335937 0.19335941,-0.099609 0.42773441,-0.1523438 0.70312501,-0.1523438 0.1875,0 0.3544922,0.032227 0.5039062,0.09375 0.1464844,0.064453 0.272461,0.1494141 0.375,0.2578125 0.1083985,0.1113281 0.1904297,0.2431641 0.2460938,0.3984375 0.061523,0.1494141 0.09375,0.3164063 0.09375,0.5039063 0,0.2519531 -0.064453,0.477539 -0.1875,0.6796875 -0.1171875,0.2050781 -0.3105469,0.3574218 -0.5742188,0.4570312 0.2871094,0.070312 0.5097657,0.2226563 0.6679688,0.4570313 0.1640625,0.234375 0.2460937,0.5214843 0.2460937,0.8554686 z m 3.7441407,-1.1601562 c 0,0.8759765 -0.1259766,1.53515622 -0.375,1.98046872 -0.2519532,0.43945313 -0.6181641,0.65625 -1.1015625,0.65625 -0.2753907,0 -0.5039063,-0.0703125 -0.6914063,-0.2109375 -0.1816406,-0.140625 -0.328125,-0.32226562 -0.4453125,-0.55078125 -0.1113281,-0.234375 -0.1875,-0.50390627 -0.234375,-0.80859377 -0.046875,-0.3046875 -0.070312,-0.6240234 -0.070312,-0.9609375 0,-0.8496094 0.1289063,-1.5029297 0.3867188,-1.9570312 0.2636718,-0.459961 0.6386718,-0.6914063 1.125,-0.6914063 0.4599609,0 0.8085937,0.2167969 1.0429687,0.6445313 0.2402344,0.430664 0.3632813,1.0634765 0.3632808,1.8984375 z m -0.5742188,0 c 0,-0.1083985 -0.00586,-0.2138672 -0.011719,-0.3164063 0,-0.1083984 -0.00586,-0.2109375 -0.011719,-0.3046875 l -1.6171875,1.921875 c 0.014648,0.064453 0.029297,0.1259766 0.046875,0.1875 0.023437,0.0556641 0.049805,0.11132815 0.082031,0.16406252 0.070312,0.15820313 0.1523437,0.27539063 0.2460937,0.3515625 0.099609,0.0791016 0.2255859,0.1171875 0.375,0.1171875 0.1640625,0 0.2988281,-0.0410156 0.4101563,-0.12890625 0.1083984,-0.09375 0.1992187,-0.22558593 0.2695312,-0.3984375 0.070312,-0.18749997 0.1201172,-0.41308597 0.1523438,-0.67968747 0.038086,-0.272461 0.058594,-0.5771485 0.058594,-0.9140625 z m -1.78125,0.046875 c 0,0.1259765 0,0.243164 0,0.3515625 0.00586,0.1113281 0.017578,0.2167968 0.035156,0.3164062 l 1.6289062,-1.9453125 c -0.140625,-0.5302734 -0.3925781,-0.796875 -0.75,-0.796875 -0.2900391,0 -0.515625,0.1845703 -0.6796875,0.5507813 -0.1582031,0.3691406 -0.234375,0.8759765 -0.2343747,1.5234375 z m 0,0"
         style="fill:#f03d21;fill-opacity:1;fill-rule:nonzero;stroke:none"
         aria-label="30"
         transform="matrix(0,-1.3333333,1.3333333,0,9486.8484,734.26347)" />
      <path
         id="path10893"
         d="M 0,0 H 63.81"
         style="fill:none;stroke:#f03d21;stroke-width:0.375;stroke-linecap:round;stroke-linejoin:round;stroke-miterlimit:10;stroke-dasharray:none;stroke-opacity:1"
         transform="matrix(1.3333333,0,0,-1.3333333,9388.3808,754.22093)" />
      <path
         id="path10894"
         d="M 0,0 V 31.86"
         style="fill:none;stroke:#f03d21;stroke-width:0.375;stroke-linecap:round;stroke-linejoin:round;stroke-miterlimit:10;stroke-dasharray:none;stroke-opacity:1"
         transform="matrix(1.3333333,0,0,-1.3333333,9477.0896,750.9084)" />
    </g>
  </g>
</svg>
