<?xml version="1.0" encoding="UTF-8" standalone="no"?>
<!-- Created with Inkscape (http://www.inkscape.org/) -->

<svg
   version="1.1"
   id="svg1"
   width="106.96875"
   height="200.69397"
   viewBox="0 0 106.96875 200.69397"
   xmlns="http://www.w3.org/2000/svg"
   xmlns:svg="http://www.w3.org/2000/svg">
  <defs
     id="defs1">
    <clipPath
       clipPathUnits="userSpaceOnUse"
       id="clipPath14198">
      <path
         d="m 339.462,214.095 0.009,-73.083 h 34.345 v -5.105 l 0.623,-2.73 h 31.512 l 0.546,2.73 v 5.105 h 11.055 l -0.009,73.083 z"
         transform="translate(-428.68326,-225.9265)"
         id="path14198" />
    </clipPath>
    <clipPath
       clipPathUnits="userSpaceOnUse"
       id="clipPath14200">
      <path
         d="m 339.462,214.095 0.009,-73.083 h 34.345 v -5.105 l 0.623,-2.73 h 31.512 l 0.546,2.73 v 5.105 h 11.055 l -0.009,73.083 z"
         transform="translate(-427.10001,-225.9265)"
         id="path14200" />
    </clipPath>
    <clipPath
       clipPathUnits="userSpaceOnUse"
       id="clipPath14202">
      <path
         d="m 339.462,214.095 0.009,-73.083 h 34.345 v -5.105 l 0.623,-2.73 h 31.512 l 0.546,2.73 v 5.105 h 11.055 l -0.009,73.083 z"
         transform="translate(-425.51751,-225.9265)"
         id="path14202" />
    </clipPath>
    <clipPath
       clipPathUnits="userSpaceOnUse"
       id="clipPath14204">
      <path
         d="m 339.462,214.095 0.009,-73.083 h 34.345 v -5.105 l 0.623,-2.73 h 31.512 l 0.546,2.73 v 5.105 h 11.055 l -0.009,73.083 z"
         transform="translate(-423.93426,-225.9265)"
         id="path14204" />
    </clipPath>
    <clipPath
       clipPathUnits="userSpaceOnUse"
       id="clipPath14206">
      <path
         d="m 339.462,214.095 0.009,-73.083 h 34.345 v -5.105 l 0.623,-2.73 h 31.512 l 0.546,2.73 v 5.105 h 11.055 l -0.009,73.083 z"
         transform="translate(-422.35101,-225.9265)"
         id="path14206" />
    </clipPath>
    <clipPath
       clipPathUnits="userSpaceOnUse"
       id="clipPath14208">
      <path
         d="m 339.462,214.095 0.009,-73.083 h 34.345 v -5.105 l 0.623,-2.73 h 31.512 l 0.546,2.73 v 5.105 h 11.055 l -0.009,73.083 z"
         transform="translate(-420.76776,-225.9265)"
         id="path14208" />
    </clipPath>
    <clipPath
       clipPathUnits="userSpaceOnUse"
       id="clipPath14210">
      <path
         d="m 339.462,214.095 0.009,-73.083 h 34.345 v -5.105 l 0.623,-2.73 h 31.512 l 0.546,2.73 v 5.105 h 11.055 l -0.009,73.083 z"
         transform="translate(-419.18451,-225.9265)"
         id="path14210" />
    </clipPath>
    <clipPath
       clipPathUnits="userSpaceOnUse"
       id="clipPath14212">
      <path
         d="m 339.462,214.095 0.009,-73.083 h 34.345 v -5.105 l 0.623,-2.73 h 31.512 l 0.546,2.73 v 5.105 h 11.055 l -0.009,73.083 z"
         transform="translate(-417.60126,-225.9265)"
         id="path14212" />
    </clipPath>
    <clipPath
       clipPathUnits="userSpaceOnUse"
       id="clipPath14214">
      <path
         d="m 339.462,214.095 0.009,-73.083 h 34.345 v -5.105 l 0.623,-2.73 h 31.512 l 0.546,2.73 v 5.105 h 11.055 l -0.009,73.083 z"
         transform="translate(-416.01876,-225.9265)"
         id="path14214" />
    </clipPath>
    <clipPath
       clipPathUnits="userSpaceOnUse"
       id="clipPath14216">
      <path
         d="m 339.462,214.095 0.009,-73.083 h 34.345 v -5.105 l 0.623,-2.73 h 31.512 l 0.546,2.73 v 5.105 h 11.055 l -0.009,73.083 z"
         transform="translate(-414.43551,-225.9265)"
         id="path14216" />
    </clipPath>
    <clipPath
       clipPathUnits="userSpaceOnUse"
       id="clipPath14218">
      <path
         d="m 339.462,214.095 0.009,-73.083 h 34.345 v -5.105 l 0.623,-2.73 h 31.512 l 0.546,2.73 v 5.105 h 11.055 l -0.009,73.083 z"
         transform="translate(-412.85226,-225.9265)"
         id="path14218" />
    </clipPath>
    <clipPath
       clipPathUnits="userSpaceOnUse"
       id="clipPath14220">
      <path
         d="m 339.462,214.095 0.009,-73.083 h 34.345 v -5.105 l 0.623,-2.73 h 31.512 l 0.546,2.73 v 5.105 h 11.055 l -0.009,73.083 z"
         transform="translate(-411.26901,-225.9265)"
         id="path14220" />
    </clipPath>
    <clipPath
       clipPathUnits="userSpaceOnUse"
       id="clipPath14222">
      <path
         d="m 339.462,214.095 0.009,-73.083 h 34.345 v -5.105 l 0.623,-2.73 h 31.512 l 0.546,2.73 v 5.105 h 11.055 l -0.009,73.083 z"
         transform="translate(-409.68576,-225.9265)"
         id="path14222" />
    </clipPath>
    <clipPath
       clipPathUnits="userSpaceOnUse"
       id="clipPath14224">
      <path
         d="m 339.462,214.095 0.009,-73.083 h 34.345 v -5.105 l 0.623,-2.73 h 31.512 l 0.546,2.73 v 5.105 h 11.055 l -0.009,73.083 z"
         transform="translate(-408.10326,-225.9265)"
         id="path14224" />
    </clipPath>
    <clipPath
       clipPathUnits="userSpaceOnUse"
       id="clipPath14226">
      <path
         d="m 339.462,214.095 0.009,-73.083 h 34.345 v -5.105 l 0.623,-2.73 h 31.512 l 0.546,2.73 v 5.105 h 11.055 l -0.009,73.083 z"
         transform="translate(-406.52001,-225.9265)"
         id="path14226" />
    </clipPath>
    <clipPath
       clipPathUnits="userSpaceOnUse"
       id="clipPath14228">
      <path
         d="m 339.462,214.095 0.009,-73.083 h 34.345 v -5.105 l 0.623,-2.73 h 31.512 l 0.546,2.73 v 5.105 h 11.055 l -0.009,73.083 z"
         transform="translate(-404.93676,-225.9265)"
         id="path14228" />
    </clipPath>
    <clipPath
       clipPathUnits="userSpaceOnUse"
       id="clipPath14230">
      <path
         d="m 339.462,214.095 0.009,-73.083 h 34.345 v -5.105 l 0.623,-2.73 h 31.512 l 0.546,2.73 v 5.105 h 11.055 l -0.009,73.083 z"
         transform="translate(-403.35351,-225.9265)"
         id="path14230" />
    </clipPath>
    <clipPath
       clipPathUnits="userSpaceOnUse"
       id="clipPath14232">
      <path
         d="m 339.462,214.095 0.009,-73.083 h 34.345 v -5.105 l 0.623,-2.73 h 31.512 l 0.546,2.73 v 5.105 h 11.055 l -0.009,73.083 z"
         transform="translate(-401.77026,-225.9265)"
         id="path14232" />
    </clipPath>
    <clipPath
       clipPathUnits="userSpaceOnUse"
       id="clipPath14234">
      <path
         d="m 339.462,214.095 0.009,-73.083 h 34.345 v -5.105 l 0.623,-2.73 h 31.512 l 0.546,2.73 v 5.105 h 11.055 l -0.009,73.083 z"
         transform="translate(-400.18776,-225.9265)"
         id="path14234" />
    </clipPath>
    <clipPath
       clipPathUnits="userSpaceOnUse"
       id="clipPath14236">
      <path
         d="m 339.462,214.095 0.009,-73.083 h 34.345 v -5.105 l 0.623,-2.73 h 31.512 l 0.546,2.73 v 5.105 h 11.055 l -0.009,73.083 z"
         transform="translate(-398.60451,-225.9265)"
         id="path14236" />
    </clipPath>
    <clipPath
       clipPathUnits="userSpaceOnUse"
       id="clipPath14238">
      <path
         d="m 339.462,214.095 0.009,-73.083 h 34.345 v -5.105 l 0.623,-2.73 h 31.512 l 0.546,2.73 v 5.105 h 11.055 l -0.009,73.083 z"
         transform="translate(-397.02126,-225.9265)"
         id="path14238" />
    </clipPath>
    <clipPath
       clipPathUnits="userSpaceOnUse"
       id="clipPath14240">
      <path
         d="m 339.462,214.095 0.009,-73.083 h 34.345 v -5.105 l 0.623,-2.73 h 31.512 l 0.546,2.73 v 5.105 h 11.055 l -0.009,73.083 z"
         transform="translate(-395.43801,-225.9265)"
         id="path14240" />
    </clipPath>
    <clipPath
       clipPathUnits="userSpaceOnUse"
       id="clipPath14242">
      <path
         d="m 339.462,214.095 0.009,-73.083 h 34.345 v -5.105 l 0.623,-2.73 h 31.512 l 0.546,2.73 v 5.105 h 11.055 l -0.009,73.083 z"
         transform="translate(-393.85476,-225.9265)"
         id="path14242" />
    </clipPath>
    <clipPath
       clipPathUnits="userSpaceOnUse"
       id="clipPath14244">
      <path
         d="m 339.462,214.095 0.009,-73.083 h 34.345 v -5.105 l 0.623,-2.73 h 31.512 l 0.546,2.73 v 5.105 h 11.055 l -0.009,73.083 z"
         transform="translate(-463.53201,-225.9265)"
         id="path14244" />
    </clipPath>
    <clipPath
       clipPathUnits="userSpaceOnUse"
       id="clipPath14246">
      <path
         d="m 339.462,214.095 0.009,-73.083 h 34.345 v -5.105 l 0.623,-2.73 h 31.512 l 0.546,2.73 v 5.105 h 11.055 l -0.009,73.083 z"
         transform="translate(-461.94876,-225.9265)"
         id="path14246" />
    </clipPath>
    <clipPath
       clipPathUnits="userSpaceOnUse"
       id="clipPath14248">
      <path
         d="m 339.462,214.095 0.009,-73.083 h 34.345 v -5.105 l 0.623,-2.73 h 31.512 l 0.546,2.73 v 5.105 h 11.055 l -0.009,73.083 z"
         transform="translate(-460.36551,-225.9265)"
         id="path14248" />
    </clipPath>
    <clipPath
       clipPathUnits="userSpaceOnUse"
       id="clipPath14250">
      <path
         d="m 339.462,214.095 0.009,-73.083 h 34.345 v -5.105 l 0.623,-2.73 h 31.512 l 0.546,2.73 v 5.105 h 11.055 l -0.009,73.083 z"
         transform="translate(-458.78226,-225.9265)"
         id="path14250" />
    </clipPath>
    <clipPath
       clipPathUnits="userSpaceOnUse"
       id="clipPath14252">
      <path
         d="m 339.462,214.095 0.009,-73.083 h 34.345 v -5.105 l 0.623,-2.73 h 31.512 l 0.546,2.73 v 5.105 h 11.055 l -0.009,73.083 z"
         transform="translate(-457.19976,-225.9265)"
         id="path14252" />
    </clipPath>
    <clipPath
       clipPathUnits="userSpaceOnUse"
       id="clipPath14254">
      <path
         d="m 339.462,214.095 0.009,-73.083 h 34.345 v -5.105 l 0.623,-2.73 h 31.512 l 0.546,2.73 v 5.105 h 11.055 l -0.009,73.083 z"
         transform="translate(-455.61651,-225.9265)"
         id="path14254" />
    </clipPath>
    <clipPath
       clipPathUnits="userSpaceOnUse"
       id="clipPath14256">
      <path
         d="m 339.462,214.095 0.009,-73.083 h 34.345 v -5.105 l 0.623,-2.73 h 31.512 l 0.546,2.73 v 5.105 h 11.055 l -0.009,73.083 z"
         transform="translate(-454.03326,-225.9265)"
         id="path14256" />
    </clipPath>
    <clipPath
       clipPathUnits="userSpaceOnUse"
       id="clipPath14258">
      <path
         d="m 339.462,214.095 0.009,-73.083 h 34.345 v -5.105 l 0.623,-2.73 h 31.512 l 0.546,2.73 v 5.105 h 11.055 l -0.009,73.083 z"
         transform="translate(-452.45001,-225.9265)"
         id="path14258" />
    </clipPath>
    <clipPath
       clipPathUnits="userSpaceOnUse"
       id="clipPath14260">
      <path
         d="m 339.462,214.095 0.009,-73.083 h 34.345 v -5.105 l 0.623,-2.73 h 31.512 l 0.546,2.73 v 5.105 h 11.055 l -0.009,73.083 z"
         transform="translate(-450.86676,-225.9265)"
         id="path14260" />
    </clipPath>
    <clipPath
       clipPathUnits="userSpaceOnUse"
       id="clipPath14262">
      <path
         d="m 339.462,214.095 0.009,-73.083 h 34.345 v -5.105 l 0.623,-2.73 h 31.512 l 0.546,2.73 v 5.105 h 11.055 l -0.009,73.083 z"
         transform="translate(-449.28426,-225.9265)"
         id="path14262" />
    </clipPath>
    <clipPath
       clipPathUnits="userSpaceOnUse"
       id="clipPath14264">
      <path
         d="m 339.462,214.095 0.009,-73.083 h 34.345 v -5.105 l 0.623,-2.73 h 31.512 l 0.546,2.73 v 5.105 h 11.055 l -0.009,73.083 z"
         transform="translate(-447.70101,-225.9265)"
         id="path14264" />
    </clipPath>
    <clipPath
       clipPathUnits="userSpaceOnUse"
       id="clipPath14266">
      <path
         d="m 339.462,214.095 0.009,-73.083 h 34.345 v -5.105 l 0.623,-2.73 h 31.512 l 0.546,2.73 v 5.105 h 11.055 l -0.009,73.083 z"
         transform="translate(-446.11776,-225.9265)"
         id="path14266" />
    </clipPath>
    <clipPath
       clipPathUnits="userSpaceOnUse"
       id="clipPath14268">
      <path
         d="m 339.462,214.095 0.009,-73.083 h 34.345 v -5.105 l 0.623,-2.73 h 31.512 l 0.546,2.73 v 5.105 h 11.055 l -0.009,73.083 z"
         transform="translate(-444.53451,-225.9265)"
         id="path14268" />
    </clipPath>
    <clipPath
       clipPathUnits="userSpaceOnUse"
       id="clipPath14270">
      <path
         d="m 339.462,214.095 0.009,-73.083 h 34.345 v -5.105 l 0.623,-2.73 h 31.512 l 0.546,2.73 v 5.105 h 11.055 l -0.009,73.083 z"
         transform="translate(-442.95126,-225.9265)"
         id="path14270" />
    </clipPath>
    <clipPath
       clipPathUnits="userSpaceOnUse"
       id="clipPath14272">
      <path
         d="m 339.462,214.095 0.009,-73.083 h 34.345 v -5.105 l 0.623,-2.73 h 31.512 l 0.546,2.73 v 5.105 h 11.055 l -0.009,73.083 z"
         transform="translate(-441.36876,-225.9265)"
         id="path14272" />
    </clipPath>
    <clipPath
       clipPathUnits="userSpaceOnUse"
       id="clipPath14274">
      <path
         d="m 339.462,214.095 0.009,-73.083 h 34.345 v -5.105 l 0.623,-2.73 h 31.512 l 0.546,2.73 v 5.105 h 11.055 l -0.009,73.083 z"
         transform="translate(-439.78551,-225.9265)"
         id="path14274" />
    </clipPath>
    <clipPath
       clipPathUnits="userSpaceOnUse"
       id="clipPath14276">
      <path
         d="m 339.462,214.095 0.009,-73.083 h 34.345 v -5.105 l 0.623,-2.73 h 31.512 l 0.546,2.73 v 5.105 h 11.055 l -0.009,73.083 z"
         transform="translate(-438.20226,-225.9265)"
         id="path14276" />
    </clipPath>
    <clipPath
       clipPathUnits="userSpaceOnUse"
       id="clipPath14278">
      <path
         d="m 339.462,214.095 0.009,-73.083 h 34.345 v -5.105 l 0.623,-2.73 h 31.512 l 0.546,2.73 v 5.105 h 11.055 l -0.009,73.083 z"
         transform="translate(-436.61901,-225.9265)"
         id="path14278" />
    </clipPath>
    <clipPath
       clipPathUnits="userSpaceOnUse"
       id="clipPath14280">
      <path
         d="m 339.462,214.095 0.009,-73.083 h 34.345 v -5.105 l 0.623,-2.73 h 31.512 l 0.546,2.73 v 5.105 h 11.055 l -0.009,73.083 z"
         transform="translate(-435.03576,-225.9265)"
         id="path14280" />
    </clipPath>
    <clipPath
       clipPathUnits="userSpaceOnUse"
       id="clipPath14282">
      <path
         d="m 339.462,214.095 0.009,-73.083 h 34.345 v -5.105 l 0.623,-2.73 h 31.512 l 0.546,2.73 v 5.105 h 11.055 l -0.009,73.083 z"
         transform="translate(-433.45326,-225.9265)"
         id="path14282" />
    </clipPath>
    <clipPath
       clipPathUnits="userSpaceOnUse"
       id="clipPath14284">
      <path
         d="m 339.462,214.095 0.009,-73.083 h 34.345 v -5.105 l 0.623,-2.73 h 31.512 l 0.546,2.73 v 5.105 h 11.055 l -0.009,73.083 z"
         transform="translate(-431.87001,-225.9265)"
         id="path14284" />
    </clipPath>
    <clipPath
       clipPathUnits="userSpaceOnUse"
       id="clipPath14286">
      <path
         d="m 339.462,214.095 0.009,-73.083 h 34.345 v -5.105 l 0.623,-2.73 h 31.512 l 0.546,2.73 v 5.105 h 11.055 l -0.009,73.083 z"
         transform="translate(-430.28676,-225.9265)"
         id="path14286" />
    </clipPath>
    <clipPath
       clipPathUnits="userSpaceOnUse"
       id="clipPath14288">
      <path
         d="m 339.462,214.095 0.009,-73.083 h 34.345 v -5.105 l 0.623,-2.73 h 31.512 l 0.546,2.73 v 5.105 h 11.055 l -0.009,73.083 z"
         transform="translate(-469.83426,-225.9265)"
         id="path14288" />
    </clipPath>
    <clipPath
       clipPathUnits="userSpaceOnUse"
       id="clipPath14290">
      <path
         d="m 339.462,214.095 0.009,-73.083 h 34.345 v -5.105 l 0.623,-2.73 h 31.512 l 0.546,2.73 v 5.105 h 11.055 l -0.009,73.083 z"
         transform="translate(-468.25176,-225.9265)"
         id="path14290" />
    </clipPath>
    <clipPath
       clipPathUnits="userSpaceOnUse"
       id="clipPath14292">
      <path
         d="m 339.462,214.095 0.009,-73.083 h 34.345 v -5.105 l 0.623,-2.73 h 31.512 l 0.546,2.73 v 5.105 h 11.055 l -0.009,73.083 z"
         transform="translate(-466.66851,-225.9265)"
         id="path14292" />
    </clipPath>
    <clipPath
       clipPathUnits="userSpaceOnUse"
       id="clipPath14294">
      <path
         d="m 339.462,214.095 0.009,-73.083 h 34.345 v -5.105 l 0.623,-2.73 h 31.512 l 0.546,2.73 v 5.105 h 11.055 l -0.009,73.083 z"
         transform="translate(-465.08526,-225.9265)"
         id="path14294" />
    </clipPath>
    <clipPath
       clipPathUnits="userSpaceOnUse"
       id="clipPath14296">
      <path
         d="m 339.462,214.095 0.009,-73.083 h 34.345 v -5.105 l 0.623,-2.73 h 31.512 l 0.546,2.73 v 5.105 h 11.055 l -0.009,73.083 z"
         transform="translate(-504.68301,-225.9265)"
         id="path14296" />
    </clipPath>
    <clipPath
       clipPathUnits="userSpaceOnUse"
       id="clipPath14298">
      <path
         d="m 339.462,214.095 0.009,-73.083 h 34.345 v -5.105 l 0.623,-2.73 h 31.512 l 0.546,2.73 v 5.105 h 11.055 l -0.009,73.083 z"
         transform="translate(-503.09976,-225.9265)"
         id="path14298" />
    </clipPath>
    <clipPath
       clipPathUnits="userSpaceOnUse"
       id="clipPath14300">
      <path
         d="m 339.462,214.095 0.009,-73.083 h 34.345 v -5.105 l 0.623,-2.73 h 31.512 l 0.546,2.73 v 5.105 h 11.055 l -0.009,73.083 z"
         transform="translate(-501.51726,-225.9265)"
         id="path14300" />
    </clipPath>
    <clipPath
       clipPathUnits="userSpaceOnUse"
       id="clipPath14302">
      <path
         d="m 339.462,214.095 0.009,-73.083 h 34.345 v -5.105 l 0.623,-2.73 h 31.512 l 0.546,2.73 v 5.105 h 11.055 l -0.009,73.083 z"
         transform="translate(-499.93401,-225.9265)"
         id="path14302" />
    </clipPath>
    <clipPath
       clipPathUnits="userSpaceOnUse"
       id="clipPath14304">
      <path
         d="m 339.462,214.095 0.009,-73.083 h 34.345 v -5.105 l 0.623,-2.73 h 31.512 l 0.546,2.73 v 5.105 h 11.055 l -0.009,73.083 z"
         transform="translate(-498.35076,-225.9265)"
         id="path14304" />
    </clipPath>
    <clipPath
       clipPathUnits="userSpaceOnUse"
       id="clipPath14306">
      <path
         d="m 339.462,214.095 0.009,-73.083 h 34.345 v -5.105 l 0.623,-2.73 h 31.512 l 0.546,2.73 v 5.105 h 11.055 l -0.009,73.083 z"
         transform="translate(-496.76751,-225.9265)"
         id="path14306" />
    </clipPath>
    <clipPath
       clipPathUnits="userSpaceOnUse"
       id="clipPath14308">
      <path
         d="m 339.462,214.095 0.009,-73.083 h 34.345 v -5.105 l 0.623,-2.73 h 31.512 l 0.546,2.73 v 5.105 h 11.055 l -0.009,73.083 z"
         transform="translate(-495.18426,-225.9265)"
         id="path14308" />
    </clipPath>
    <clipPath
       clipPathUnits="userSpaceOnUse"
       id="clipPath14310">
      <path
         d="m 339.462,214.095 0.009,-73.083 h 34.345 v -5.105 l 0.623,-2.73 h 31.512 l 0.546,2.73 v 5.105 h 11.055 l -0.009,73.083 z"
         transform="translate(-493.60176,-225.9265)"
         id="path14310" />
    </clipPath>
    <clipPath
       clipPathUnits="userSpaceOnUse"
       id="clipPath14312">
      <path
         d="m 339.462,214.095 0.009,-73.083 h 34.345 v -5.105 l 0.623,-2.73 h 31.512 l 0.546,2.73 v 5.105 h 11.055 l -0.009,73.083 z"
         transform="translate(-492.01851,-225.9265)"
         id="path14312" />
    </clipPath>
    <clipPath
       clipPathUnits="userSpaceOnUse"
       id="clipPath14314">
      <path
         d="m 339.462,214.095 0.009,-73.083 h 34.345 v -5.105 l 0.623,-2.73 h 31.512 l 0.546,2.73 v 5.105 h 11.055 l -0.009,73.083 z"
         transform="translate(-490.43526,-225.9265)"
         id="path14314" />
    </clipPath>
    <clipPath
       clipPathUnits="userSpaceOnUse"
       id="clipPath14316">
      <path
         d="m 339.462,214.095 0.009,-73.083 h 34.345 v -5.105 l 0.623,-2.73 h 31.512 l 0.546,2.73 v 5.105 h 11.055 l -0.009,73.083 z"
         transform="translate(-488.85201,-225.9265)"
         id="path14316" />
    </clipPath>
    <clipPath
       clipPathUnits="userSpaceOnUse"
       id="clipPath14318">
      <path
         d="m 339.462,214.095 0.009,-73.083 h 34.345 v -5.105 l 0.623,-2.73 h 31.512 l 0.546,2.73 v 5.105 h 11.055 l -0.009,73.083 z"
         transform="translate(-487.26876,-225.9265)"
         id="path14318" />
    </clipPath>
    <clipPath
       clipPathUnits="userSpaceOnUse"
       id="clipPath14320">
      <path
         d="m 339.462,214.095 0.009,-73.083 h 34.345 v -5.105 l 0.623,-2.73 h 31.512 l 0.546,2.73 v 5.105 h 11.055 l -0.009,73.083 z"
         transform="translate(-485.68626,-225.9265)"
         id="path14320" />
    </clipPath>
    <clipPath
       clipPathUnits="userSpaceOnUse"
       id="clipPath14322">
      <path
         d="m 339.462,214.095 0.009,-73.083 h 34.345 v -5.105 l 0.623,-2.73 h 31.512 l 0.546,2.73 v 5.105 h 11.055 l -0.009,73.083 z"
         transform="translate(-484.10301,-225.9265)"
         id="path14322" />
    </clipPath>
    <clipPath
       clipPathUnits="userSpaceOnUse"
       id="clipPath14324">
      <path
         d="m 339.462,214.095 0.009,-73.083 h 34.345 v -5.105 l 0.623,-2.73 h 31.512 l 0.546,2.73 v 5.105 h 11.055 l -0.009,73.083 z"
         transform="translate(-482.51976,-225.9265)"
         id="path14324" />
    </clipPath>
    <clipPath
       clipPathUnits="userSpaceOnUse"
       id="clipPath14326">
      <path
         d="m 339.462,214.095 0.009,-73.083 h 34.345 v -5.105 l 0.623,-2.73 h 31.512 l 0.546,2.73 v 5.105 h 11.055 l -0.009,73.083 z"
         transform="translate(-480.93651,-225.9265)"
         id="path14326" />
    </clipPath>
    <clipPath
       clipPathUnits="userSpaceOnUse"
       id="clipPath14328">
      <path
         d="m 339.462,214.095 0.009,-73.083 h 34.345 v -5.105 l 0.623,-2.73 h 31.512 l 0.546,2.73 v 5.105 h 11.055 l -0.009,73.083 z"
         transform="translate(-479.35326,-225.9265)"
         id="path14328" />
    </clipPath>
    <clipPath
       clipPathUnits="userSpaceOnUse"
       id="clipPath14330">
      <path
         d="m 339.462,214.095 0.009,-73.083 h 34.345 v -5.105 l 0.623,-2.73 h 31.512 l 0.546,2.73 v 5.105 h 11.055 l -0.009,73.083 z"
         transform="translate(-477.77076,-225.9265)"
         id="path14330" />
    </clipPath>
    <clipPath
       clipPathUnits="userSpaceOnUse"
       id="clipPath14332">
      <path
         d="m 339.462,214.095 0.009,-73.083 h 34.345 v -5.105 l 0.623,-2.73 h 31.512 l 0.546,2.73 v 5.105 h 11.055 l -0.009,73.083 z"
         transform="translate(-476.18751,-225.9265)"
         id="path14332" />
    </clipPath>
    <clipPath
       clipPathUnits="userSpaceOnUse"
       id="clipPath14334">
      <path
         d="m 339.462,214.095 0.009,-73.083 h 34.345 v -5.105 l 0.623,-2.73 h 31.512 l 0.546,2.73 v 5.105 h 11.055 l -0.009,73.083 z"
         transform="translate(-474.60426,-225.9265)"
         id="path14334" />
    </clipPath>
    <clipPath
       clipPathUnits="userSpaceOnUse"
       id="clipPath14336">
      <path
         d="m 339.462,214.095 0.009,-73.083 h 34.345 v -5.105 l 0.623,-2.73 h 31.512 l 0.546,2.73 v 5.105 h 11.055 l -0.009,73.083 z"
         transform="translate(-473.02101,-225.9265)"
         id="path14336" />
    </clipPath>
    <clipPath
       clipPathUnits="userSpaceOnUse"
       id="clipPath14338">
      <path
         d="m 339.462,214.095 0.009,-73.083 h 34.345 v -5.105 l 0.623,-2.73 h 31.512 l 0.546,2.73 v 5.105 h 11.055 l -0.009,73.083 z"
         transform="translate(-471.43776,-225.9265)"
         id="path14338" />
    </clipPath>
    <clipPath
       clipPathUnits="userSpaceOnUse"
       id="clipPath14340">
      <path
         d="m 339.462,214.095 0.009,-73.083 h 34.345 v -5.105 l 0.623,-2.73 h 31.512 l 0.546,2.73 v 5.105 h 11.055 l -0.009,73.083 z"
         transform="translate(-392.27226,-225.9265)"
         id="path14340" />
    </clipPath>
    <clipPath
       clipPathUnits="userSpaceOnUse"
       id="clipPath14342">
      <path
         d="m 339.462,214.095 0.009,-73.083 h 34.345 v -5.105 l 0.623,-2.73 h 31.512 l 0.546,2.73 v 5.105 h 11.055 l -0.009,73.083 z"
         transform="translate(-390.68901,-225.9265)"
         id="path14342" />
    </clipPath>
    <clipPath
       clipPathUnits="userSpaceOnUse"
       id="clipPath14344">
      <path
         d="m 339.462,214.095 0.009,-73.083 h 34.345 v -5.105 l 0.623,-2.73 h 31.512 l 0.546,2.73 v 5.105 h 11.055 l -0.009,73.083 z"
         transform="translate(-389.10576,-225.9265)"
         id="path14344" />
    </clipPath>
    <clipPath
       clipPathUnits="userSpaceOnUse"
       id="clipPath14346">
      <path
         d="m 339.462,214.095 0.009,-73.083 h 34.345 v -5.105 l 0.623,-2.73 h 31.512 l 0.546,2.73 v 5.105 h 11.055 l -0.009,73.083 z"
         transform="translate(-387.52251,-225.9265)"
         id="path14346" />
    </clipPath>
    <clipPath
       clipPathUnits="userSpaceOnUse"
       id="clipPath14348">
      <path
         d="m 339.462,214.095 0.009,-73.083 h 34.345 v -5.105 l 0.623,-2.73 h 31.512 l 0.546,2.73 v 5.105 h 11.055 l -0.009,73.083 z"
         transform="translate(-385.93926,-225.9265)"
         id="path14348" />
    </clipPath>
    <clipPath
       clipPathUnits="userSpaceOnUse"
       id="clipPath14350">
      <path
         d="m 339.462,214.095 0.009,-73.083 h 34.345 v -5.105 l 0.623,-2.73 h 31.512 l 0.546,2.73 v 5.105 h 11.055 l -0.009,73.083 z"
         transform="translate(-384.35676,-225.9265)"
         id="path14350" />
    </clipPath>
    <clipPath
       clipPathUnits="userSpaceOnUse"
       id="clipPath14352">
      <path
         d="m 339.462,214.095 0.009,-73.083 h 34.345 v -5.105 l 0.623,-2.73 h 31.512 l 0.546,2.73 v 5.105 h 11.055 l -0.009,73.083 z"
         transform="translate(-382.77351,-225.9265)"
         id="path14352" />
    </clipPath>
    <clipPath
       clipPathUnits="userSpaceOnUse"
       id="clipPath14354">
      <path
         d="m 339.462,214.095 0.009,-73.083 h 34.345 v -5.105 l 0.623,-2.73 h 31.512 l 0.546,2.73 v 5.105 h 11.055 l -0.009,73.083 z"
         transform="translate(-381.19026,-225.9265)"
         id="path14354" />
    </clipPath>
    <clipPath
       clipPathUnits="userSpaceOnUse"
       id="clipPath14356">
      <path
         d="m 339.462,214.095 0.009,-73.083 h 34.345 v -5.105 l 0.623,-2.73 h 31.512 l 0.546,2.73 v 5.105 h 11.055 l -0.009,73.083 z"
         transform="translate(-379.60701,-225.9265)"
         id="path14356" />
    </clipPath>
    <clipPath
       clipPathUnits="userSpaceOnUse"
       id="clipPath14358">
      <path
         d="m 339.462,214.095 0.009,-73.083 h 34.345 v -5.105 l 0.623,-2.73 h 31.512 l 0.546,2.73 v 5.105 h 11.055 l -0.009,73.083 z"
         transform="translate(-378.02376,-225.9265)"
         id="path14358" />
    </clipPath>
    <clipPath
       clipPathUnits="userSpaceOnUse"
       id="clipPath14360">
      <path
         d="m 339.462,214.095 0.009,-73.083 h 34.345 v -5.105 l 0.623,-2.73 h 31.512 l 0.546,2.73 v 5.105 h 11.055 l -0.009,73.083 z"
         transform="translate(-376.44126,-225.9265)"
         id="path14360" />
    </clipPath>
    <clipPath
       clipPathUnits="userSpaceOnUse"
       id="clipPath14362">
      <path
         d="m 339.462,214.095 0.009,-73.083 h 34.345 v -5.105 l 0.623,-2.73 h 31.512 l 0.546,2.73 v 5.105 h 11.055 l -0.009,73.083 z"
         transform="translate(-374.85801,-225.9265)"
         id="path14362" />
    </clipPath>
    <clipPath
       clipPathUnits="userSpaceOnUse"
       id="clipPath14364">
      <path
         d="m 339.462,214.095 0.009,-73.083 h 34.345 v -5.105 l 0.623,-2.73 h 31.512 l 0.546,2.73 v 5.105 h 11.055 l -0.009,73.083 z"
         transform="translate(-373.27476,-225.9265)"
         id="path14364" />
    </clipPath>
    <clipPath
       clipPathUnits="userSpaceOnUse"
       id="clipPath14366">
      <path
         d="m 339.462,214.095 0.009,-73.083 h 34.345 v -5.105 l 0.623,-2.73 h 31.512 l 0.546,2.73 v 5.105 h 11.055 l -0.009,73.083 z"
         transform="translate(-371.69151,-225.9265)"
         id="path14366" />
    </clipPath>
    <clipPath
       clipPathUnits="userSpaceOnUse"
       id="clipPath14368">
      <path
         d="m 339.462,214.095 0.009,-73.083 h 34.345 v -5.105 l 0.623,-2.73 h 31.512 l 0.546,2.73 v 5.105 h 11.055 l -0.009,73.083 z"
         transform="translate(-370.10826,-225.9265)"
         id="path14368" />
    </clipPath>
    <clipPath
       clipPathUnits="userSpaceOnUse"
       id="clipPath14370">
      <path
         d="m 339.462,214.095 0.009,-73.083 h 34.345 v -5.105 l 0.623,-2.73 h 31.512 l 0.546,2.73 v 5.105 h 11.055 l -0.009,73.083 z"
         transform="translate(-368.52501,-225.9265)"
         id="path14370" />
    </clipPath>
    <clipPath
       clipPathUnits="userSpaceOnUse"
       id="clipPath14372">
      <path
         d="m 339.462,214.095 0.009,-73.083 h 34.345 v -5.105 l 0.623,-2.73 h 31.512 l 0.546,2.73 v 5.105 h 11.055 l -0.009,73.083 z"
         transform="translate(-366.94251,-225.9265)"
         id="path14372" />
    </clipPath>
    <clipPath
       clipPathUnits="userSpaceOnUse"
       id="clipPath14374">
      <path
         d="m 339.462,214.095 0.009,-73.083 h 34.345 v -5.105 l 0.623,-2.73 h 31.512 l 0.546,2.73 v 5.105 h 11.055 l -0.009,73.083 z"
         transform="translate(-365.35926,-225.9265)"
         id="path14374" />
    </clipPath>
    <clipPath
       clipPathUnits="userSpaceOnUse"
       id="clipPath14376">
      <path
         d="m 339.462,214.095 0.009,-73.083 h 34.345 v -5.105 l 0.623,-2.73 h 31.512 l 0.546,2.73 v 5.105 h 11.055 l -0.009,73.083 z"
         transform="translate(-363.77601,-225.9265)"
         id="path14376" />
    </clipPath>
    <clipPath
       clipPathUnits="userSpaceOnUse"
       id="clipPath14378">
      <path
         d="m 339.462,214.095 0.009,-73.083 h 34.345 v -5.105 l 0.623,-2.73 h 31.512 l 0.546,2.73 v 5.105 h 11.055 l -0.009,73.083 z"
         transform="translate(-362.19276,-225.9265)"
         id="path14378" />
    </clipPath>
    <clipPath
       clipPathUnits="userSpaceOnUse"
       id="clipPath14380">
      <path
         d="m 339.462,214.095 0.009,-73.083 h 34.345 v -5.105 l 0.623,-2.73 h 31.512 l 0.546,2.73 v 5.105 h 11.055 l -0.009,73.083 z"
         transform="translate(-360.60951,-225.9265)"
         id="path14380" />
    </clipPath>
    <clipPath
       clipPathUnits="userSpaceOnUse"
       id="clipPath14382">
      <path
         d="m 339.462,214.095 0.009,-73.083 h 34.345 v -5.105 l 0.623,-2.73 h 31.512 l 0.546,2.73 v 5.105 h 11.055 l -0.009,73.083 z"
         transform="translate(-359.02701,-225.9265)"
         id="path14382" />
    </clipPath>
    <clipPath
       clipPathUnits="userSpaceOnUse"
       id="clipPath14384">
      <path
         d="m 339.462,214.095 0.009,-73.083 h 34.345 v -5.105 l 0.623,-2.73 h 31.512 l 0.546,2.73 v 5.105 h 11.055 l -0.009,73.083 z"
         transform="translate(-357.44376,-225.9265)"
         id="path14384" />
    </clipPath>
    <clipPath
       clipPathUnits="userSpaceOnUse"
       id="clipPath14386">
      <path
         d="m 339.462,214.095 0.009,-73.083 h 34.345 v -5.105 l 0.623,-2.73 h 31.512 l 0.546,2.73 v 5.105 h 11.055 l -0.009,73.083 z"
         transform="translate(-355.86051,-225.9265)"
         id="path14386" />
    </clipPath>
    <clipPath
       clipPathUnits="userSpaceOnUse"
       id="clipPath14388">
      <path
         d="m 339.462,214.095 0.009,-73.083 h 34.345 v -5.105 l 0.623,-2.73 h 31.512 l 0.546,2.73 v 5.105 h 11.055 l -0.009,73.083 z"
         transform="translate(-354.27726,-225.9265)"
         id="path14388" />
    </clipPath>
  </defs>
  <g
     id="g13506"
     transform="translate(-11029.278,-823.09767)">
    <g
       id="group-MC3">
      <path
         id="path14179"
         d="m 0,0 0.078,-0.156 0.078,-0.156 0.078,-0.079 v -0.155 l 0.078,-0.156 0.079,-0.156 v -0.157 l 0.077,-0.156 v -1.248 l 6.084,2.185 0.156,0.078 0.156,0.077 L 7.02,0 7.099,0.077 7.254,0.156 7.332,0.311 7.489,0.39 7.566,0.546 7.645,0.702 7.722,0.857 7.8,1.014 7.878,1.169 V 1.325 L 7.956,1.481 V 22.542 H -5.928 V 4.133 h 0.312 l 0.157,-0.077 h 0.077 L -5.226,3.977 -5.07,3.9 h 0.156 L -4.757,3.821 -4.68,3.744 -4.524,3.666 -4.368,3.509 -4.29,3.431 -4.211,3.354 -4.055,3.198 -3.978,3.119 -3.9,2.964 -3.822,2.807 h 0.156 l 0.157,-0.078 h 0.156 l 0.155,-0.077 0.156,-0.079 h 0.156 L -2.807,2.496 -2.651,2.418 -2.496,2.34 -2.34,2.261 -2.184,2.183 -2.028,2.106 -1.95,2.027 -1.794,1.95 -1.638,1.871 -1.559,1.794 -1.403,1.716 -1.326,1.559 -1.17,1.481 -1.092,1.404 -0.936,1.248 -0.857,1.169 -0.701,1.014 -0.624,0.935 -0.546,0.779 -0.39,0.702 -0.311,0.546 -0.234,0.39 -0.155,0.311 -0.078,0.156 0,0"
         style="fill:none;stroke:#7b7979;stroke-width:0.325;stroke-linecap:round;stroke-linejoin:round;stroke-miterlimit:10;stroke-dasharray:none;stroke-opacity:1"
         transform="matrix(1.3333333,0,0,-1.3333333,11121.599,1014.942)" />
      <path
         id="path14180"
         d="M 0,0 H -2.729 V -5.381 H 0 Z"
         style="fill:none;stroke:#7b7979;stroke-width:0.325;stroke-linecap:round;stroke-linejoin:round;stroke-miterlimit:10;stroke-dasharray:none;stroke-opacity:1"
         transform="matrix(1.3333333,0,0,-1.3333333,11102.567,947.65493)" />
      <path
         id="path14181"
         d="M 0,0 H -2.729 V -6.319 H 0 Z"
         style="fill:none;stroke:#7b7979;stroke-width:0.325;stroke-linecap:round;stroke-linejoin:round;stroke-miterlimit:10;stroke-dasharray:none;stroke-opacity:1"
         transform="matrix(1.3333333,0,0,-1.3333333,11102.567,964.606)" />
      <path
         id="path14182"
         d="M 0,0 H 2.729 V 5.927 H 0 Z"
         style="fill:none;stroke:#7b7979;stroke-width:0.325;stroke-linecap:round;stroke-linejoin:round;stroke-miterlimit:10;stroke-dasharray:none;stroke-opacity:1"
         transform="matrix(1.3333333,0,0,-1.3333333,11046.511,964.606)" />
      <path
         id="path14183"
         d="M 0,0 H 2.729 V 4.915 H 0 Z"
         style="fill:none;stroke:#7b7979;stroke-width:0.325;stroke-linecap:round;stroke-linejoin:round;stroke-miterlimit:10;stroke-dasharray:none;stroke-opacity:1"
         transform="matrix(1.3333333,0,0,-1.3333333,11046.511,973.03)" />
      <path
         id="path14184"
         d="M 0,0 H -8.58 V -13.025 H 0 Z"
         style="fill:none;stroke:#7b7979;stroke-width:0.325;stroke-linecap:round;stroke-linejoin:round;stroke-miterlimit:10;stroke-dasharray:none;stroke-opacity:1"
         transform="matrix(1.3333333,0,0,-1.3333333,11044.639,947.65493)" />
      <path
         id="path14185"
         d="M 0,0 H 2.729 V 5.381 H 0 Z"
         style="fill:none;stroke:#7b7979;stroke-width:0.325;stroke-linecap:round;stroke-linejoin:round;stroke-miterlimit:10;stroke-dasharray:none;stroke-opacity:1"
         transform="matrix(1.3333333,0,0,-1.3333333,11046.511,954.83)" />
      <path
         id="path14186"
         d="M 0,0 H -2.729 V -4.602 H 0 Z"
         style="fill:none;stroke:#7b7979;stroke-width:0.325;stroke-linecap:round;stroke-linejoin:round;stroke-miterlimit:10;stroke-dasharray:none;stroke-opacity:1"
         transform="matrix(1.3333333,0,0,-1.3333333,11102.567,956.70293)" />
      <path
         id="path14187"
         d="M 0,0 H -13.182 V -12.09 H 0 Z"
         style="fill:none;stroke:#7b7979;stroke-width:0.325;stroke-linecap:round;stroke-linejoin:round;stroke-miterlimit:10;stroke-dasharray:none;stroke-opacity:1"
         transform="matrix(1.3333333,0,0,-1.3333333,11132.207,947.65493)" />
      <path
         id="path14188"
         d="M 0,0 H -2.729 V -6.085 L 0,-5.539 V 0"
         style="fill:none;stroke:#7b7979;stroke-width:0.325;stroke-linecap:round;stroke-linejoin:round;stroke-miterlimit:10;stroke-dasharray:none;stroke-opacity:1"
         transform="matrix(1.3333333,0,0,-1.3333333,11102.567,974.7976)" />
      <path
         id="path14189"
         d="M 0,0 H -14.119 V -6.24 H 1.17 L 0,0"
         style="fill:none;stroke:#7b7979;stroke-width:0.325;stroke-linecap:round;stroke-linejoin:round;stroke-miterlimit:10;stroke-dasharray:none;stroke-opacity:1"
         transform="matrix(1.3333333,0,0,-1.3333333,11070.847,937.878)" />
      <path
         id="path14190"
         d="M 0,0 1.092,-5.85 H 5.927 V 0.39 H 0.233 L 0,0"
         style="fill:none;stroke:#7b7979;stroke-width:0.325;stroke-linecap:round;stroke-linejoin:round;stroke-miterlimit:10;stroke-dasharray:none;stroke-opacity:1"
         transform="matrix(1.3333333,0,0,-1.3333333,11042.247,938.3976)" />
      <path
         id="path14191"
         d="m 0,0 h -2.729 l 0.624,-6.943 H 0 V 0"
         style="fill:none;stroke:#7b7979;stroke-width:0.325;stroke-linecap:round;stroke-linejoin:round;stroke-miterlimit:10;stroke-dasharray:none;stroke-opacity:1"
         transform="matrix(1.3333333,0,0,-1.3333333,11050.15,974.7976)" />
      <path
         id="path14192"
         d="M 0,0 H 0.156 L 0.312,-0.079 0.468,-0.156 H 0.624 L 0.78,-0.234 0.858,-0.312 1.015,-0.391 1.17,-0.546 1.248,-0.625 1.404,-0.702 1.481,-0.858 1.638,-0.936 1.717,-1.093 1.794,-1.171 1.872,-1.327 1.95,-1.483 2.028,-1.639 2.106,-1.717 2.183,-1.873 H 16.224 V 11.933 H 3.12 L 0,0"
         style="fill:none;stroke:#7b7979;stroke-width:0.325;stroke-linecap:round;stroke-linejoin:round;stroke-miterlimit:10;stroke-dasharray:none;stroke-opacity:1"
         transform="matrix(1.3333333,0,0,-1.3333333,11110.575,981.142)" />
      <path
         id="path14193"
         d="M 0,0 3.51,0.623 6.552,12.479 V 25.661 H 0 V 0"
         style="fill:none;stroke:#7b7979;stroke-width:0.325;stroke-linecap:round;stroke-linejoin:round;stroke-miterlimit:10;stroke-dasharray:none;stroke-opacity:1"
         transform="matrix(1.3333333,0,0,-1.3333333,11104.439,981.86973)" />
      <path
         id="path14194"
         d="M 0,0 V 0.312 L 0.078,0.469 0.156,0.625 0.312,0.702 0.468,0.858 H 0.546 L 0.702,0.935 H 9.126 L 9.281,0.858 H 9.438 L 9.594,0.702 9.672,0.625 9.828,0.469 V 0.312 L 9.906,0.156 v -3.822 h 1.716 l 3.588,0.624 V 23.633 H 9.983 L 9.517,23.167 9.048,23.633 h -21.606 l -0.468,-0.466 -0.468,0.466 h -5.071 V -3.666 h 1.405 l 0.468,0.468 0.39,-0.468 H -4.29 l 0.468,0.468 0.468,-0.468 H 0 V 0"
         style="fill:none;stroke:#7b7979;stroke-width:0.325;stroke-linecap:round;stroke-linejoin:round;stroke-miterlimit:10;stroke-dasharray:none;stroke-opacity:1"
         transform="matrix(1.3333333,0,0,-1.3333333,11076.775,979.16653)" />
      <path
         id="path14195"
         d="M 0,0 H 0.311 L 0.467,-0.078 0.623,-0.156 0.701,-0.312 0.857,-0.39 0.935,-0.546 V -2.183 L 1.092,-2.262 1.248,-2.34 H 1.403 L 1.559,-2.419 1.715,-2.496 1.794,-2.574 1.95,-2.652 2.105,-2.73 2.183,-2.885 2.34,-2.965 2.417,-3.042 2.573,-3.198 2.651,-3.276 2.729,-3.431 2.885,-3.588 2.964,-3.667 3.042,-3.822 3.119,-3.978 V -4.133 L 3.198,-4.29 3.275,-4.369 3.353,-4.524 v -0.311 l 0.078,-0.157 v -0.78 H 4.055 L 3.431,1.092 V 3.275 H 1.794 L 1.638,3.354 H 1.481 L 1.403,3.51 1.248,3.588 1.169,3.744 1.092,3.9 V 4.056 L 1.014,4.212 V 4.679 H 3.431 V 7.41 H 0.467 V 6.396 H -0.391 V 7.41 H -1.873 V 6.396 H -2.808 V 7.41 H -5.149 V 4.679 h 2.418 V 4.056 L -2.808,3.9 -2.886,3.744 -2.965,3.588 -3.043,3.51 -3.199,3.354 H -3.354 L -3.51,3.275 h -1.639 v -5.381 h 1.872 v 1.404 l 0.078,0.156 0.078,0.156 0.078,0.078 0.078,0.156 0.157,0.078 L -2.652,0 h 0.779 v -2.106 h 1.482 V 0 H 0"
         style="fill:none;stroke:#7b7979;stroke-width:0.325;stroke-linecap:round;stroke-linejoin:round;stroke-miterlimit:10;stroke-dasharray:none;stroke-opacity:1"
         transform="matrix(1.3333333,0,0,-1.3333333,11040.064,976.35827)" />
      <path
         id="path14196"
         d="m 0,0 v -40.951 l 0.078,-0.155 v -0.156 l 0.078,-0.157 0.078,-0.156 0.157,-0.077 0.077,-0.156 h 0.156 l 0.156,-0.079 h 3.588 l 0.078,0.079 0.078,0.077 0.078,0.079 v 2.261 H 2.808 v 4.135 l 0.078,0.155 v 0.078 l 0.157,0.156 0.077,0.157 0.156,0.077 0.156,0.079 h 4.524 l 0.155,-0.079 h 0.157 l 0.156,-0.077 0.078,-0.079 0.156,-0.156 0.078,-0.078 0.078,-0.156 0.079,-0.077 0.077,-0.156 0.078,-0.157 v -0.546 L 8.97,-36.193 v -0.156 l -0.234,-0.39 -0.078,-0.156 v -0.156 L 8.58,-37.206 8.502,-37.362 v -0.079 l -0.078,-0.156 v -0.311 l -0.078,-0.157 v -3.822 h 2.262 v 1.872 h -0.467 v 1.794 h 28.313 v 2.028 h -1.248 v 2.574 h 5.772 l 0.078,-0.078 v -2.496 H 41.73 v -2.028 h 5.304 l 12.714,2.263 h 0.311 l 0.157,-0.079 h 0.156 l 0.156,-0.156 0.078,-0.078 0.078,-0.156 0.077,-0.156 0.08,-0.156 v -18.954 h -0.937 v -1.872 h 2.73 v -1.637 h 0.077 v -0.079 l 0.08,-0.077 1.013,-0.235 h 0.155 l 0.08,0.078 v 0.936 l 0.077,0.078 h 0.468 l 0.157,-0.078 h 0.155 l 0.156,-0.077 0.078,-0.079 h 0.156 l 0.157,-0.077 0.155,-0.079 0.156,-0.078 0.078,-0.078 0.157,-0.078 0.156,-0.156 0.077,-0.077 0.156,-0.079 0.078,-0.156 0.155,-0.078 0.08,-0.156 0.077,-0.077 0.078,-0.156 0.078,-0.157 0.078,-0.156 0.078,-0.078 0.078,-0.155 v -0.079 l 0.078,-0.156 v -2.261 l -0.078,-0.079 H 67.08 l -0.078,-0.077 v -0.079 l -1.95,-0.623 h -0.936 l -0.077,0.077 v 0.936 l -0.08,0.078 h -0.155 l -1.013,-0.233 -0.08,-0.079 v -0.077 h -0.077 v -1.639 h -1.793 v -0.936 h 4.602 l 10.763,3.9 0.155,0.079 0.157,0.077 0.156,0.078 0.156,0.078 0.078,0.078 0.156,0.078 0.156,0.078 0.156,0.079 0.078,0.077 0.155,0.079 0.08,0.155 0.156,0.078 0.077,0.157 0.156,0.077 0.078,0.156 0.078,0.078 0.157,0.156 0.077,0.156 0.078,0.079 0.078,0.156 0.078,0.155 0.078,0.156 0.078,0.156 0.078,0.156 v 0.156 l 0.078,0.078 0.079,0.156 v 0.156 l 0.077,0.156 v 0.312 l 0.078,0.234 V 0.155 L 79.17,0.233 V 0.311 L 79.093,0.39 78.936,0.467 H 78.78 L 77.766,0.39 H 77.454 L 77.298,0.311 77.22,0.233 H 77.064 L 76.986,0.077 76.83,0 76.361,-0.469 76.284,-0.546 76.206,-0.702 76.128,-0.781 76.05,-0.858 v -0.157 l -0.078,-0.078 v -0.155 l -0.233,-1.248 h 1.169 V -6.631 L 76.83,-6.708 76.752,-6.787 76.674,-6.865 H 71.37 l -0.077,0.078 h -0.079 v 0.235 l 0.858,4.835 v 0.234 h -0.077 v 0.079 L 71.136,0 71.058,0.155 70.98,0.233 70.902,0.311 70.746,0.39 70.668,0.467 H 69.809 L 69.654,0.39 69.576,0.311 69.498,0.233 69.343,0.155 69.264,0.077 68.328,-1.248 68.095,-2.496 h 2.027 L 70.2,-2.575 v -0.156 l -0.702,-3.9 V -6.708 L 69.42,-6.787 69.343,-6.865 H 53.664 l -0.468,-0.312 -0.468,0.312 H 33.852 l -0.078,0.078 v 0.079 l -0.078,0.077 -0.701,3.9 v 0.156 h 0.077 v 0.079 H 35.1 L 34.945,-1.248 33.93,0.077 33.852,0.155 33.774,0.233 33.618,0.311 33.541,0.39 33.461,0.467 H 27.145 L 26.676,0.233 26.208,0.467 H 14.352 L 13.884,0.233 13.339,0.467 H 8.658 L 8.502,0.39 8.346,0.311 8.268,0.233 8.191,0.155 8.111,0 7.254,-1.404 V -1.717 L 8.111,-6.552 V -6.631 L 8.034,-6.708 V -6.787 L 7.956,-6.865 H 2.574 l -0.078,0.078 -0.078,0.079 v 0.077 l -0.077,0.079 v 4.056 h 1.168 l -0.233,1.248 v 0.233 L 3.198,-0.858 3.12,-0.781 v 0.079 L 3.043,-0.546 2.964,-0.469 2.418,0 2.341,0.077 2.184,0.233 H 2.106 L 1.95,0.311 1.795,0.39 H 1.482 L 0.546,0.467 H 0.311 L 0.234,0.39 0.156,0.311 0.078,0.233 V 0.155 L 0,0"
         style="fill:none;stroke:#7b7979;stroke-width:0.325;stroke-linecap:round;stroke-linejoin:round;stroke-miterlimit:10;stroke-dasharray:none;stroke-opacity:1"
         transform="matrix(1.3333333,0,0,-1.3333333,11029.871,935.7976)" />
      <path
         id="path14197"
         d="M 0,0 -96.448,-96.447"
         style="fill:none;stroke:#83a6a7;stroke-width:0.26;stroke-linecap:butt;stroke-linejoin:miter;stroke-miterlimit:10;stroke-dasharray:none;stroke-opacity:1"
         transform="matrix(1.3333333,0,0,-1.3333333,11149.695,821.28467)"
         clip-path="url(#clipPath14198)" />
      <path
         id="path14199"
         d="M 0,0 -96.448,-96.447"
         style="fill:none;stroke:#83a6a7;stroke-width:0.26;stroke-linecap:butt;stroke-linejoin:miter;stroke-miterlimit:10;stroke-dasharray:none;stroke-opacity:1"
         transform="matrix(1.3333333,0,0,-1.3333333,11147.584,821.28467)"
         clip-path="url(#clipPath14200)" />
      <path
         id="path14201"
         d="M 0,0 -96.448,-96.447"
         style="fill:none;stroke:#83a6a7;stroke-width:0.26;stroke-linecap:butt;stroke-linejoin:miter;stroke-miterlimit:10;stroke-dasharray:none;stroke-opacity:1"
         transform="matrix(1.3333333,0,0,-1.3333333,11145.474,821.28467)"
         clip-path="url(#clipPath14202)" />
      <path
         id="path14203"
         d="M 0,0 -96.446,-96.447"
         style="fill:none;stroke:#83a6a7;stroke-width:0.26;stroke-linecap:butt;stroke-linejoin:miter;stroke-miterlimit:10;stroke-dasharray:none;stroke-opacity:1"
         transform="matrix(1.3333333,0,0,-1.3333333,11143.363,821.28467)"
         clip-path="url(#clipPath14204)" />
      <path
         id="path14205"
         d="M 0,0 -96.446,-96.447"
         style="fill:none;stroke:#83a6a7;stroke-width:0.26;stroke-linecap:butt;stroke-linejoin:miter;stroke-miterlimit:10;stroke-dasharray:none;stroke-opacity:1"
         transform="matrix(1.3333333,0,0,-1.3333333,11141.252,821.28467)"
         clip-path="url(#clipPath14206)" />
      <path
         id="path14207"
         d="M 0,0 -96.446,-96.447"
         style="fill:none;stroke:#83a6a7;stroke-width:0.26;stroke-linecap:butt;stroke-linejoin:miter;stroke-miterlimit:10;stroke-dasharray:none;stroke-opacity:1"
         transform="matrix(1.3333333,0,0,-1.3333333,11139.141,821.28467)"
         clip-path="url(#clipPath14208)" />
      <path
         id="path14209"
         d="M 0,0 -96.446,-96.447"
         style="fill:none;stroke:#83a6a7;stroke-width:0.26;stroke-linecap:butt;stroke-linejoin:miter;stroke-miterlimit:10;stroke-dasharray:none;stroke-opacity:1"
         transform="matrix(1.3333333,0,0,-1.3333333,11137.03,821.28467)"
         clip-path="url(#clipPath14210)" />
      <path
         id="path14211"
         d="M 0,0 -96.446,-96.447"
         style="fill:none;stroke:#83a6a7;stroke-width:0.26;stroke-linecap:butt;stroke-linejoin:miter;stroke-miterlimit:10;stroke-dasharray:none;stroke-opacity:1"
         transform="matrix(1.3333333,0,0,-1.3333333,11134.919,821.28467)"
         clip-path="url(#clipPath14212)" />
      <path
         id="path14213"
         d="M 0,0 -96.446,-96.447"
         style="fill:none;stroke:#83a6a7;stroke-width:0.26;stroke-linecap:butt;stroke-linejoin:miter;stroke-miterlimit:10;stroke-dasharray:none;stroke-opacity:1"
         transform="matrix(1.3333333,0,0,-1.3333333,11132.809,821.28467)"
         clip-path="url(#clipPath14214)" />
      <path
         id="path14215"
         d="M 0,0 -96.446,-96.447"
         style="fill:none;stroke:#83a6a7;stroke-width:0.26;stroke-linecap:butt;stroke-linejoin:miter;stroke-miterlimit:10;stroke-dasharray:none;stroke-opacity:1"
         transform="matrix(1.3333333,0,0,-1.3333333,11130.698,821.28467)"
         clip-path="url(#clipPath14216)" />
      <path
         id="path14217"
         d="M 0,0 -96.446,-96.447"
         style="fill:none;stroke:#83a6a7;stroke-width:0.26;stroke-linecap:butt;stroke-linejoin:miter;stroke-miterlimit:10;stroke-dasharray:none;stroke-opacity:1"
         transform="matrix(1.3333333,0,0,-1.3333333,11128.587,821.28467)"
         clip-path="url(#clipPath14218)" />
      <path
         id="path14219"
         d="M 0,0 -96.446,-96.447"
         style="fill:none;stroke:#83a6a7;stroke-width:0.26;stroke-linecap:butt;stroke-linejoin:miter;stroke-miterlimit:10;stroke-dasharray:none;stroke-opacity:1"
         transform="matrix(1.3333333,0,0,-1.3333333,11126.476,821.28467)"
         clip-path="url(#clipPath14220)" />
      <path
         id="path14221"
         d="M 0,0 -96.446,-96.447"
         style="fill:none;stroke:#83a6a7;stroke-width:0.26;stroke-linecap:butt;stroke-linejoin:miter;stroke-miterlimit:10;stroke-dasharray:none;stroke-opacity:1"
         transform="matrix(1.3333333,0,0,-1.3333333,11124.365,821.28467)"
         clip-path="url(#clipPath14222)" />
      <path
         id="path14223"
         d="M 0,0 -96.446,-96.447"
         style="fill:none;stroke:#83a6a7;stroke-width:0.26;stroke-linecap:butt;stroke-linejoin:miter;stroke-miterlimit:10;stroke-dasharray:none;stroke-opacity:1"
         transform="matrix(1.3333333,0,0,-1.3333333,11122.255,821.28467)"
         clip-path="url(#clipPath14224)" />
      <path
         id="path14225"
         d="M 0,0 -96.446,-96.447"
         style="fill:none;stroke:#83a6a7;stroke-width:0.26;stroke-linecap:butt;stroke-linejoin:miter;stroke-miterlimit:10;stroke-dasharray:none;stroke-opacity:1"
         transform="matrix(1.3333333,0,0,-1.3333333,11120.144,821.28467)"
         clip-path="url(#clipPath14226)" />
      <path
         id="path14227"
         d="M 0,0 -96.446,-96.447"
         style="fill:none;stroke:#83a6a7;stroke-width:0.26;stroke-linecap:butt;stroke-linejoin:miter;stroke-miterlimit:10;stroke-dasharray:none;stroke-opacity:1"
         transform="matrix(1.3333333,0,0,-1.3333333,11118.033,821.28467)"
         clip-path="url(#clipPath14228)" />
      <path
         id="path14229"
         d="M 0,0 -96.446,-96.447"
         style="fill:none;stroke:#83a6a7;stroke-width:0.26;stroke-linecap:butt;stroke-linejoin:miter;stroke-miterlimit:10;stroke-dasharray:none;stroke-opacity:1"
         transform="matrix(1.3333333,0,0,-1.3333333,11115.922,821.28467)"
         clip-path="url(#clipPath14230)" />
      <path
         id="path14231"
         d="M 0,0 -96.446,-96.447"
         style="fill:none;stroke:#83a6a7;stroke-width:0.26;stroke-linecap:butt;stroke-linejoin:miter;stroke-miterlimit:10;stroke-dasharray:none;stroke-opacity:1"
         transform="matrix(1.3333333,0,0,-1.3333333,11113.811,821.28467)"
         clip-path="url(#clipPath14232)" />
      <path
         id="path14233"
         d="M 0,0 -96.446,-96.447"
         style="fill:none;stroke:#83a6a7;stroke-width:0.26;stroke-linecap:butt;stroke-linejoin:miter;stroke-miterlimit:10;stroke-dasharray:none;stroke-opacity:1"
         transform="matrix(1.3333333,0,0,-1.3333333,11111.701,821.28467)"
         clip-path="url(#clipPath14234)" />
      <path
         id="path14235"
         d="M 0,0 -96.446,-96.447"
         style="fill:none;stroke:#83a6a7;stroke-width:0.26;stroke-linecap:butt;stroke-linejoin:miter;stroke-miterlimit:10;stroke-dasharray:none;stroke-opacity:1"
         transform="matrix(1.3333333,0,0,-1.3333333,11109.59,821.28467)"
         clip-path="url(#clipPath14236)" />
      <path
         id="path14237"
         d="M 0,0 -96.446,-96.447"
         style="fill:none;stroke:#83a6a7;stroke-width:0.26;stroke-linecap:butt;stroke-linejoin:miter;stroke-miterlimit:10;stroke-dasharray:none;stroke-opacity:1"
         transform="matrix(1.3333333,0,0,-1.3333333,11107.479,821.28467)"
         clip-path="url(#clipPath14238)" />
      <path
         id="path14239"
         d="M 0,0 -96.446,-96.447"
         style="fill:none;stroke:#83a6a7;stroke-width:0.26;stroke-linecap:butt;stroke-linejoin:miter;stroke-miterlimit:10;stroke-dasharray:none;stroke-opacity:1"
         transform="matrix(1.3333333,0,0,-1.3333333,11105.368,821.28467)"
         clip-path="url(#clipPath14240)" />
      <path
         id="path14241"
         d="M 0,0 -96.446,-96.447"
         style="fill:none;stroke:#83a6a7;stroke-width:0.26;stroke-linecap:butt;stroke-linejoin:miter;stroke-miterlimit:10;stroke-dasharray:none;stroke-opacity:1"
         transform="matrix(1.3333333,0,0,-1.3333333,11103.257,821.28467)"
         clip-path="url(#clipPath14242)" />
      <path
         id="path14243"
         d="M 0,0 -96.448,-96.447"
         style="fill:none;stroke:#83a6a7;stroke-width:0.26;stroke-linecap:butt;stroke-linejoin:miter;stroke-miterlimit:10;stroke-dasharray:none;stroke-opacity:1"
         transform="matrix(1.3333333,0,0,-1.3333333,11196.16,821.28467)"
         clip-path="url(#clipPath14244)" />
      <path
         id="path14245"
         d="M 0,0 -96.448,-96.447"
         style="fill:none;stroke:#83a6a7;stroke-width:0.26;stroke-linecap:butt;stroke-linejoin:miter;stroke-miterlimit:10;stroke-dasharray:none;stroke-opacity:1"
         transform="matrix(1.3333333,0,0,-1.3333333,11194.049,821.28467)"
         clip-path="url(#clipPath14246)" />
      <path
         id="path14247"
         d="M 0,0 -96.448,-96.447"
         style="fill:none;stroke:#83a6a7;stroke-width:0.26;stroke-linecap:butt;stroke-linejoin:miter;stroke-miterlimit:10;stroke-dasharray:none;stroke-opacity:1"
         transform="matrix(1.3333333,0,0,-1.3333333,11191.938,821.28467)"
         clip-path="url(#clipPath14248)" />
      <path
         id="path14249"
         d="M 0,0 -96.448,-96.447"
         style="fill:none;stroke:#83a6a7;stroke-width:0.26;stroke-linecap:butt;stroke-linejoin:miter;stroke-miterlimit:10;stroke-dasharray:none;stroke-opacity:1"
         transform="matrix(1.3333333,0,0,-1.3333333,11189.827,821.28467)"
         clip-path="url(#clipPath14250)" />
      <path
         id="path14251"
         d="M 0,0 -96.448,-96.447"
         style="fill:none;stroke:#83a6a7;stroke-width:0.26;stroke-linecap:butt;stroke-linejoin:miter;stroke-miterlimit:10;stroke-dasharray:none;stroke-opacity:1"
         transform="matrix(1.3333333,0,0,-1.3333333,11187.717,821.28467)"
         clip-path="url(#clipPath14252)" />
      <path
         id="path14253"
         d="M 0,0 -96.448,-96.447"
         style="fill:none;stroke:#83a6a7;stroke-width:0.26;stroke-linecap:butt;stroke-linejoin:miter;stroke-miterlimit:10;stroke-dasharray:none;stroke-opacity:1"
         transform="matrix(1.3333333,0,0,-1.3333333,11185.606,821.28467)"
         clip-path="url(#clipPath14254)" />
      <path
         id="path14255"
         d="M 0,0 -96.448,-96.447"
         style="fill:none;stroke:#83a6a7;stroke-width:0.26;stroke-linecap:butt;stroke-linejoin:miter;stroke-miterlimit:10;stroke-dasharray:none;stroke-opacity:1"
         transform="matrix(1.3333333,0,0,-1.3333333,11183.495,821.28467)"
         clip-path="url(#clipPath14256)" />
      <path
         id="path14257"
         d="M 0,0 -96.448,-96.447"
         style="fill:none;stroke:#83a6a7;stroke-width:0.26;stroke-linecap:butt;stroke-linejoin:miter;stroke-miterlimit:10;stroke-dasharray:none;stroke-opacity:1"
         transform="matrix(1.3333333,0,0,-1.3333333,11181.384,821.28467)"
         clip-path="url(#clipPath14258)" />
      <path
         id="path14259"
         d="M 0,0 -96.448,-96.447"
         style="fill:none;stroke:#83a6a7;stroke-width:0.26;stroke-linecap:butt;stroke-linejoin:miter;stroke-miterlimit:10;stroke-dasharray:none;stroke-opacity:1"
         transform="matrix(1.3333333,0,0,-1.3333333,11179.273,821.28467)"
         clip-path="url(#clipPath14260)" />
      <path
         id="path14261"
         d="M 0,0 -96.448,-96.447"
         style="fill:none;stroke:#83a6a7;stroke-width:0.26;stroke-linecap:butt;stroke-linejoin:miter;stroke-miterlimit:10;stroke-dasharray:none;stroke-opacity:1"
         transform="matrix(1.3333333,0,0,-1.3333333,11177.163,821.28467)"
         clip-path="url(#clipPath14262)" />
      <path
         id="path14263"
         d="M 0,0 -96.448,-96.447"
         style="fill:none;stroke:#83a6a7;stroke-width:0.26;stroke-linecap:butt;stroke-linejoin:miter;stroke-miterlimit:10;stroke-dasharray:none;stroke-opacity:1"
         transform="matrix(1.3333333,0,0,-1.3333333,11175.052,821.28467)"
         clip-path="url(#clipPath14264)" />
      <path
         id="path14265"
         d="M 0,0 -96.448,-96.447"
         style="fill:none;stroke:#83a6a7;stroke-width:0.26;stroke-linecap:butt;stroke-linejoin:miter;stroke-miterlimit:10;stroke-dasharray:none;stroke-opacity:1"
         transform="matrix(1.3333333,0,0,-1.3333333,11172.941,821.28467)"
         clip-path="url(#clipPath14266)" />
      <path
         id="path14267"
         d="M 0,0 -96.448,-96.447"
         style="fill:none;stroke:#83a6a7;stroke-width:0.26;stroke-linecap:butt;stroke-linejoin:miter;stroke-miterlimit:10;stroke-dasharray:none;stroke-opacity:1"
         transform="matrix(1.3333333,0,0,-1.3333333,11170.83,821.28467)"
         clip-path="url(#clipPath14268)" />
      <path
         id="path14269"
         d="M 0,0 -96.448,-96.447"
         style="fill:none;stroke:#83a6a7;stroke-width:0.26;stroke-linecap:butt;stroke-linejoin:miter;stroke-miterlimit:10;stroke-dasharray:none;stroke-opacity:1"
         transform="matrix(1.3333333,0,0,-1.3333333,11168.719,821.28467)"
         clip-path="url(#clipPath14270)" />
      <path
         id="path14271"
         d="M 0,0 -96.448,-96.447"
         style="fill:none;stroke:#83a6a7;stroke-width:0.26;stroke-linecap:butt;stroke-linejoin:miter;stroke-miterlimit:10;stroke-dasharray:none;stroke-opacity:1"
         transform="matrix(1.3333333,0,0,-1.3333333,11166.609,821.28467)"
         clip-path="url(#clipPath14272)" />
      <path
         id="path14273"
         d="M 0,0 -96.448,-96.447"
         style="fill:none;stroke:#83a6a7;stroke-width:0.26;stroke-linecap:butt;stroke-linejoin:miter;stroke-miterlimit:10;stroke-dasharray:none;stroke-opacity:1"
         transform="matrix(1.3333333,0,0,-1.3333333,11164.498,821.28467)"
         clip-path="url(#clipPath14274)" />
      <path
         id="path14275"
         d="M 0,0 -96.448,-96.447"
         style="fill:none;stroke:#83a6a7;stroke-width:0.26;stroke-linecap:butt;stroke-linejoin:miter;stroke-miterlimit:10;stroke-dasharray:none;stroke-opacity:1"
         transform="matrix(1.3333333,0,0,-1.3333333,11162.387,821.28467)"
         clip-path="url(#clipPath14276)" />
      <path
         id="path14277"
         d="M 0,0 -96.448,-96.447"
         style="fill:none;stroke:#83a6a7;stroke-width:0.26;stroke-linecap:butt;stroke-linejoin:miter;stroke-miterlimit:10;stroke-dasharray:none;stroke-opacity:1"
         transform="matrix(1.3333333,0,0,-1.3333333,11160.276,821.28467)"
         clip-path="url(#clipPath14278)" />
      <path
         id="path14279"
         d="M 0,0 -96.448,-96.447"
         style="fill:none;stroke:#83a6a7;stroke-width:0.26;stroke-linecap:butt;stroke-linejoin:miter;stroke-miterlimit:10;stroke-dasharray:none;stroke-opacity:1"
         transform="matrix(1.3333333,0,0,-1.3333333,11158.165,821.28467)"
         clip-path="url(#clipPath14280)" />
      <path
         id="path14281"
         d="M 0,0 -96.448,-96.447"
         style="fill:none;stroke:#83a6a7;stroke-width:0.26;stroke-linecap:butt;stroke-linejoin:miter;stroke-miterlimit:10;stroke-dasharray:none;stroke-opacity:1"
         transform="matrix(1.3333333,0,0,-1.3333333,11156.055,821.28467)"
         clip-path="url(#clipPath14282)" />
      <path
         id="path14283"
         d="M 0,0 -96.448,-96.447"
         style="fill:none;stroke:#83a6a7;stroke-width:0.26;stroke-linecap:butt;stroke-linejoin:miter;stroke-miterlimit:10;stroke-dasharray:none;stroke-opacity:1"
         transform="matrix(1.3333333,0,0,-1.3333333,11153.944,821.28467)"
         clip-path="url(#clipPath14284)" />
      <path
         id="path14285"
         d="M 0,0 -96.448,-96.447"
         style="fill:none;stroke:#83a6a7;stroke-width:0.26;stroke-linecap:butt;stroke-linejoin:miter;stroke-miterlimit:10;stroke-dasharray:none;stroke-opacity:1"
         transform="matrix(1.3333333,0,0,-1.3333333,11151.833,821.28467)"
         clip-path="url(#clipPath14286)" />
      <path
         id="path14287"
         d="M 0,0 -96.448,-96.447"
         style="fill:none;stroke:#83a6a7;stroke-width:0.26;stroke-linecap:butt;stroke-linejoin:miter;stroke-miterlimit:10;stroke-dasharray:none;stroke-opacity:1"
         transform="matrix(1.3333333,0,0,-1.3333333,11204.563,821.28467)"
         clip-path="url(#clipPath14288)" />
      <path
         id="path14289"
         d="M 0,0 -96.448,-96.447"
         style="fill:none;stroke:#83a6a7;stroke-width:0.26;stroke-linecap:butt;stroke-linejoin:miter;stroke-miterlimit:10;stroke-dasharray:none;stroke-opacity:1"
         transform="matrix(1.3333333,0,0,-1.3333333,11202.453,821.28467)"
         clip-path="url(#clipPath14290)" />
      <path
         id="path14291"
         d="M 0,0 -96.448,-96.447"
         style="fill:none;stroke:#83a6a7;stroke-width:0.26;stroke-linecap:butt;stroke-linejoin:miter;stroke-miterlimit:10;stroke-dasharray:none;stroke-opacity:1"
         transform="matrix(1.3333333,0,0,-1.3333333,11200.342,821.28467)"
         clip-path="url(#clipPath14292)" />
      <path
         id="path14293"
         d="M 0,0 -96.448,-96.447"
         style="fill:none;stroke:#83a6a7;stroke-width:0.26;stroke-linecap:butt;stroke-linejoin:miter;stroke-miterlimit:10;stroke-dasharray:none;stroke-opacity:1"
         transform="matrix(1.3333333,0,0,-1.3333333,11198.231,821.28467)"
         clip-path="url(#clipPath14294)" />
      <path
         id="path14295"
         d="M 0,0 -96.448,-96.447"
         style="fill:none;stroke:#83a6a7;stroke-width:0.26;stroke-linecap:butt;stroke-linejoin:miter;stroke-miterlimit:10;stroke-dasharray:none;stroke-opacity:1"
         transform="matrix(1.3333333,0,0,-1.3333333,11251.028,821.28467)"
         clip-path="url(#clipPath14296)" />
      <path
         id="path14297"
         d="M 0,0 -96.448,-96.447"
         style="fill:none;stroke:#83a6a7;stroke-width:0.26;stroke-linecap:butt;stroke-linejoin:miter;stroke-miterlimit:10;stroke-dasharray:none;stroke-opacity:1"
         transform="matrix(1.3333333,0,0,-1.3333333,11248.917,821.28467)"
         clip-path="url(#clipPath14298)" />
      <path
         id="path14299"
         d="M 0,0 -96.448,-96.447"
         style="fill:none;stroke:#83a6a7;stroke-width:0.26;stroke-linecap:butt;stroke-linejoin:miter;stroke-miterlimit:10;stroke-dasharray:none;stroke-opacity:1"
         transform="matrix(1.3333333,0,0,-1.3333333,11246.807,821.28467)"
         clip-path="url(#clipPath14300)" />
      <path
         id="path14301"
         d="M 0,0 -96.448,-96.447"
         style="fill:none;stroke:#83a6a7;stroke-width:0.26;stroke-linecap:butt;stroke-linejoin:miter;stroke-miterlimit:10;stroke-dasharray:none;stroke-opacity:1"
         transform="matrix(1.3333333,0,0,-1.3333333,11244.696,821.28467)"
         clip-path="url(#clipPath14302)" />
      <path
         id="path14303"
         d="M 0,0 -96.448,-96.447"
         style="fill:none;stroke:#83a6a7;stroke-width:0.26;stroke-linecap:butt;stroke-linejoin:miter;stroke-miterlimit:10;stroke-dasharray:none;stroke-opacity:1"
         transform="matrix(1.3333333,0,0,-1.3333333,11242.585,821.28467)"
         clip-path="url(#clipPath14304)" />
      <path
         id="path14305"
         d="M 0,0 -96.448,-96.447"
         style="fill:none;stroke:#83a6a7;stroke-width:0.26;stroke-linecap:butt;stroke-linejoin:miter;stroke-miterlimit:10;stroke-dasharray:none;stroke-opacity:1"
         transform="matrix(1.3333333,0,0,-1.3333333,11240.474,821.28467)"
         clip-path="url(#clipPath14306)" />
      <path
         id="path14307"
         d="M 0,0 -96.448,-96.447"
         style="fill:none;stroke:#83a6a7;stroke-width:0.26;stroke-linecap:butt;stroke-linejoin:miter;stroke-miterlimit:10;stroke-dasharray:none;stroke-opacity:1"
         transform="matrix(1.3333333,0,0,-1.3333333,11238.363,821.28467)"
         clip-path="url(#clipPath14308)" />
      <path
         id="path14309"
         d="M 0,0 -96.448,-96.447"
         style="fill:none;stroke:#83a6a7;stroke-width:0.26;stroke-linecap:butt;stroke-linejoin:miter;stroke-miterlimit:10;stroke-dasharray:none;stroke-opacity:1"
         transform="matrix(1.3333333,0,0,-1.3333333,11236.253,821.28467)"
         clip-path="url(#clipPath14310)" />
      <path
         id="path14311"
         d="M 0,0 -96.448,-96.447"
         style="fill:none;stroke:#83a6a7;stroke-width:0.26;stroke-linecap:butt;stroke-linejoin:miter;stroke-miterlimit:10;stroke-dasharray:none;stroke-opacity:1"
         transform="matrix(1.3333333,0,0,-1.3333333,11234.142,821.28467)"
         clip-path="url(#clipPath14312)" />
      <path
         id="path14313"
         d="M 0,0 -96.448,-96.447"
         style="fill:none;stroke:#83a6a7;stroke-width:0.26;stroke-linecap:butt;stroke-linejoin:miter;stroke-miterlimit:10;stroke-dasharray:none;stroke-opacity:1"
         transform="matrix(1.3333333,0,0,-1.3333333,11232.031,821.28467)"
         clip-path="url(#clipPath14314)" />
      <path
         id="path14315"
         d="M 0,0 -96.448,-96.447"
         style="fill:none;stroke:#83a6a7;stroke-width:0.26;stroke-linecap:butt;stroke-linejoin:miter;stroke-miterlimit:10;stroke-dasharray:none;stroke-opacity:1"
         transform="matrix(1.3333333,0,0,-1.3333333,11229.92,821.28467)"
         clip-path="url(#clipPath14316)" />
      <path
         id="path14317"
         d="M 0,0 -96.448,-96.447"
         style="fill:none;stroke:#83a6a7;stroke-width:0.26;stroke-linecap:butt;stroke-linejoin:miter;stroke-miterlimit:10;stroke-dasharray:none;stroke-opacity:1"
         transform="matrix(1.3333333,0,0,-1.3333333,11227.809,821.28467)"
         clip-path="url(#clipPath14318)" />
      <path
         id="path14319"
         d="M 0,0 -96.448,-96.447"
         style="fill:none;stroke:#83a6a7;stroke-width:0.26;stroke-linecap:butt;stroke-linejoin:miter;stroke-miterlimit:10;stroke-dasharray:none;stroke-opacity:1"
         transform="matrix(1.3333333,0,0,-1.3333333,11225.699,821.28467)"
         clip-path="url(#clipPath14320)" />
      <path
         id="path14321"
         d="M 0,0 -96.448,-96.447"
         style="fill:none;stroke:#83a6a7;stroke-width:0.26;stroke-linecap:butt;stroke-linejoin:miter;stroke-miterlimit:10;stroke-dasharray:none;stroke-opacity:1"
         transform="matrix(1.3333333,0,0,-1.3333333,11223.588,821.28467)"
         clip-path="url(#clipPath14322)" />
      <path
         id="path14323"
         d="M 0,0 -96.448,-96.447"
         style="fill:none;stroke:#83a6a7;stroke-width:0.26;stroke-linecap:butt;stroke-linejoin:miter;stroke-miterlimit:10;stroke-dasharray:none;stroke-opacity:1"
         transform="matrix(1.3333333,0,0,-1.3333333,11221.477,821.28467)"
         clip-path="url(#clipPath14324)" />
      <path
         id="path14325"
         d="M 0,0 -96.448,-96.447"
         style="fill:none;stroke:#83a6a7;stroke-width:0.26;stroke-linecap:butt;stroke-linejoin:miter;stroke-miterlimit:10;stroke-dasharray:none;stroke-opacity:1"
         transform="matrix(1.3333333,0,0,-1.3333333,11219.366,821.28467)"
         clip-path="url(#clipPath14326)" />
      <path
         id="path14327"
         d="M 0,0 -96.448,-96.447"
         style="fill:none;stroke:#83a6a7;stroke-width:0.26;stroke-linecap:butt;stroke-linejoin:miter;stroke-miterlimit:10;stroke-dasharray:none;stroke-opacity:1"
         transform="matrix(1.3333333,0,0,-1.3333333,11217.255,821.28467)"
         clip-path="url(#clipPath14328)" />
      <path
         id="path14329"
         d="M 0,0 -96.448,-96.447"
         style="fill:none;stroke:#83a6a7;stroke-width:0.26;stroke-linecap:butt;stroke-linejoin:miter;stroke-miterlimit:10;stroke-dasharray:none;stroke-opacity:1"
         transform="matrix(1.3333333,0,0,-1.3333333,11215.145,821.28467)"
         clip-path="url(#clipPath14330)" />
      <path
         id="path14331"
         d="M 0,0 -96.448,-96.447"
         style="fill:none;stroke:#83a6a7;stroke-width:0.26;stroke-linecap:butt;stroke-linejoin:miter;stroke-miterlimit:10;stroke-dasharray:none;stroke-opacity:1"
         transform="matrix(1.3333333,0,0,-1.3333333,11213.034,821.28467)"
         clip-path="url(#clipPath14332)" />
      <path
         id="path14333"
         d="M 0,0 -96.448,-96.447"
         style="fill:none;stroke:#83a6a7;stroke-width:0.26;stroke-linecap:butt;stroke-linejoin:miter;stroke-miterlimit:10;stroke-dasharray:none;stroke-opacity:1"
         transform="matrix(1.3333333,0,0,-1.3333333,11210.923,821.28467)"
         clip-path="url(#clipPath14334)" />
      <path
         id="path14335"
         d="M 0,0 -96.448,-96.447"
         style="fill:none;stroke:#83a6a7;stroke-width:0.26;stroke-linecap:butt;stroke-linejoin:miter;stroke-miterlimit:10;stroke-dasharray:none;stroke-opacity:1"
         transform="matrix(1.3333333,0,0,-1.3333333,11208.812,821.28467)"
         clip-path="url(#clipPath14336)" />
      <path
         id="path14337"
         d="M 0,0 -96.448,-96.447"
         style="fill:none;stroke:#83a6a7;stroke-width:0.26;stroke-linecap:butt;stroke-linejoin:miter;stroke-miterlimit:10;stroke-dasharray:none;stroke-opacity:1"
         transform="matrix(1.3333333,0,0,-1.3333333,11206.701,821.28467)"
         clip-path="url(#clipPath14338)" />
      <path
         id="path14339"
         d="M 0,0 -96.446,-96.447"
         style="fill:none;stroke:#83a6a7;stroke-width:0.26;stroke-linecap:butt;stroke-linejoin:miter;stroke-miterlimit:10;stroke-dasharray:none;stroke-opacity:1"
         transform="matrix(1.3333333,0,0,-1.3333333,11101.147,821.28467)"
         clip-path="url(#clipPath14340)" />
      <path
         id="path14341"
         d="M 0,0 -96.446,-96.447"
         style="fill:none;stroke:#83a6a7;stroke-width:0.26;stroke-linecap:butt;stroke-linejoin:miter;stroke-miterlimit:10;stroke-dasharray:none;stroke-opacity:1"
         transform="matrix(1.3333333,0,0,-1.3333333,11099.036,821.28467)"
         clip-path="url(#clipPath14342)" />
      <path
         id="path14343"
         d="M 0,0 -96.446,-96.447"
         style="fill:none;stroke:#83a6a7;stroke-width:0.26;stroke-linecap:butt;stroke-linejoin:miter;stroke-miterlimit:10;stroke-dasharray:none;stroke-opacity:1"
         transform="matrix(1.3333333,0,0,-1.3333333,11096.925,821.28467)"
         clip-path="url(#clipPath14344)" />
      <path
         id="path14345"
         d="M 0,0 -96.446,-96.447"
         style="fill:none;stroke:#83a6a7;stroke-width:0.26;stroke-linecap:butt;stroke-linejoin:miter;stroke-miterlimit:10;stroke-dasharray:none;stroke-opacity:1"
         transform="matrix(1.3333333,0,0,-1.3333333,11094.814,821.28467)"
         clip-path="url(#clipPath14346)" />
      <path
         id="path14347"
         d="M 0,0 -96.446,-96.447"
         style="fill:none;stroke:#83a6a7;stroke-width:0.26;stroke-linecap:butt;stroke-linejoin:miter;stroke-miterlimit:10;stroke-dasharray:none;stroke-opacity:1"
         transform="matrix(1.3333333,0,0,-1.3333333,11092.703,821.28467)"
         clip-path="url(#clipPath14348)" />
      <path
         id="path14349"
         d="M 0,0 -96.446,-96.447"
         style="fill:none;stroke:#83a6a7;stroke-width:0.26;stroke-linecap:butt;stroke-linejoin:miter;stroke-miterlimit:10;stroke-dasharray:none;stroke-opacity:1"
         transform="matrix(1.3333333,0,0,-1.3333333,11090.593,821.28467)"
         clip-path="url(#clipPath14350)" />
      <path
         id="path14351"
         d="M 0,0 -96.446,-96.447"
         style="fill:none;stroke:#83a6a7;stroke-width:0.26;stroke-linecap:butt;stroke-linejoin:miter;stroke-miterlimit:10;stroke-dasharray:none;stroke-opacity:1"
         transform="matrix(1.3333333,0,0,-1.3333333,11088.482,821.28467)"
         clip-path="url(#clipPath14352)" />
      <path
         id="path14353"
         d="M 0,0 -96.446,-96.447"
         style="fill:none;stroke:#83a6a7;stroke-width:0.26;stroke-linecap:butt;stroke-linejoin:miter;stroke-miterlimit:10;stroke-dasharray:none;stroke-opacity:1"
         transform="matrix(1.3333333,0,0,-1.3333333,11086.371,821.28467)"
         clip-path="url(#clipPath14354)" />
      <path
         id="path14355"
         d="M 0,0 -96.446,-96.447"
         style="fill:none;stroke:#83a6a7;stroke-width:0.26;stroke-linecap:butt;stroke-linejoin:miter;stroke-miterlimit:10;stroke-dasharray:none;stroke-opacity:1"
         transform="matrix(1.3333333,0,0,-1.3333333,11084.26,821.28467)"
         clip-path="url(#clipPath14356)" />
      <path
         id="path14357"
         d="M 0,0 -96.445,-96.447"
         style="fill:none;stroke:#83a6a7;stroke-width:0.26;stroke-linecap:butt;stroke-linejoin:miter;stroke-miterlimit:10;stroke-dasharray:none;stroke-opacity:1"
         transform="matrix(1.3333333,0,0,-1.3333333,11082.149,821.28467)"
         clip-path="url(#clipPath14358)" />
      <path
         id="path14359"
         d="M 0,0 -96.445,-96.447"
         style="fill:none;stroke:#83a6a7;stroke-width:0.26;stroke-linecap:butt;stroke-linejoin:miter;stroke-miterlimit:10;stroke-dasharray:none;stroke-opacity:1"
         transform="matrix(1.3333333,0,0,-1.3333333,11080.039,821.28467)"
         clip-path="url(#clipPath14360)" />
      <path
         id="path14361"
         d="M 0,0 -96.444,-96.447"
         style="fill:none;stroke:#83a6a7;stroke-width:0.26;stroke-linecap:butt;stroke-linejoin:miter;stroke-miterlimit:10;stroke-dasharray:none;stroke-opacity:1"
         transform="matrix(1.3333333,0,0,-1.3333333,11077.928,821.28467)"
         clip-path="url(#clipPath14362)" />
      <path
         id="path14363"
         d="M 0,0 -96.444,-96.447"
         style="fill:none;stroke:#83a6a7;stroke-width:0.26;stroke-linecap:butt;stroke-linejoin:miter;stroke-miterlimit:10;stroke-dasharray:none;stroke-opacity:1"
         transform="matrix(1.3333333,0,0,-1.3333333,11075.817,821.28467)"
         clip-path="url(#clipPath14364)" />
      <path
         id="path14365"
         d="M 0,0 -96.444,-96.447"
         style="fill:none;stroke:#83a6a7;stroke-width:0.26;stroke-linecap:butt;stroke-linejoin:miter;stroke-miterlimit:10;stroke-dasharray:none;stroke-opacity:1"
         transform="matrix(1.3333333,0,0,-1.3333333,11073.706,821.28467)"
         clip-path="url(#clipPath14366)" />
      <path
         id="path14367"
         d="M 0,0 -96.444,-96.447"
         style="fill:none;stroke:#83a6a7;stroke-width:0.26;stroke-linecap:butt;stroke-linejoin:miter;stroke-miterlimit:10;stroke-dasharray:none;stroke-opacity:1"
         transform="matrix(1.3333333,0,0,-1.3333333,11071.595,821.28467)"
         clip-path="url(#clipPath14368)" />
      <path
         id="path14369"
         d="M 0,0 -96.444,-96.447"
         style="fill:none;stroke:#83a6a7;stroke-width:0.26;stroke-linecap:butt;stroke-linejoin:miter;stroke-miterlimit:10;stroke-dasharray:none;stroke-opacity:1"
         transform="matrix(1.3333333,0,0,-1.3333333,11069.484,821.28467)"
         clip-path="url(#clipPath14370)" />
      <path
         id="path14371"
         d="M 0,0 -96.444,-96.447"
         style="fill:none;stroke:#83a6a7;stroke-width:0.26;stroke-linecap:butt;stroke-linejoin:miter;stroke-miterlimit:10;stroke-dasharray:none;stroke-opacity:1"
         transform="matrix(1.3333333,0,0,-1.3333333,11067.374,821.28467)"
         clip-path="url(#clipPath14372)" />
      <path
         id="path14373"
         d="M 0,0 -96.444,-96.447"
         style="fill:none;stroke:#83a6a7;stroke-width:0.26;stroke-linecap:butt;stroke-linejoin:miter;stroke-miterlimit:10;stroke-dasharray:none;stroke-opacity:1"
         transform="matrix(1.3333333,0,0,-1.3333333,11065.263,821.28467)"
         clip-path="url(#clipPath14374)" />
      <path
         id="path14375"
         d="M 0,0 -96.444,-96.447"
         style="fill:none;stroke:#83a6a7;stroke-width:0.26;stroke-linecap:butt;stroke-linejoin:miter;stroke-miterlimit:10;stroke-dasharray:none;stroke-opacity:1"
         transform="matrix(1.3333333,0,0,-1.3333333,11063.152,821.28467)"
         clip-path="url(#clipPath14376)" />
      <path
         id="path14377"
         d="M 0,0 -96.444,-96.447"
         style="fill:none;stroke:#83a6a7;stroke-width:0.26;stroke-linecap:butt;stroke-linejoin:miter;stroke-miterlimit:10;stroke-dasharray:none;stroke-opacity:1"
         transform="matrix(1.3333333,0,0,-1.3333333,11061.041,821.28467)"
         clip-path="url(#clipPath14378)" />
      <path
         id="path14379"
         d="M 0,0 -96.444,-96.447"
         style="fill:none;stroke:#83a6a7;stroke-width:0.26;stroke-linecap:butt;stroke-linejoin:miter;stroke-miterlimit:10;stroke-dasharray:none;stroke-opacity:1"
         transform="matrix(1.3333333,0,0,-1.3333333,11058.93,821.28467)"
         clip-path="url(#clipPath14380)" />
      <path
         id="path14381"
         d="M 0,0 -96.444,-96.447"
         style="fill:none;stroke:#83a6a7;stroke-width:0.26;stroke-linecap:butt;stroke-linejoin:miter;stroke-miterlimit:10;stroke-dasharray:none;stroke-opacity:1"
         transform="matrix(1.3333333,0,0,-1.3333333,11056.82,821.28467)"
         clip-path="url(#clipPath14382)" />
      <path
         id="path14383"
         d="M 0,0 -96.444,-96.447"
         style="fill:none;stroke:#83a6a7;stroke-width:0.26;stroke-linecap:butt;stroke-linejoin:miter;stroke-miterlimit:10;stroke-dasharray:none;stroke-opacity:1"
         transform="matrix(1.3333333,0,0,-1.3333333,11054.709,821.28467)"
         clip-path="url(#clipPath14384)" />
      <path
         id="path14385"
         d="M 0,0 -96.444,-96.447"
         style="fill:none;stroke:#83a6a7;stroke-width:0.26;stroke-linecap:butt;stroke-linejoin:miter;stroke-miterlimit:10;stroke-dasharray:none;stroke-opacity:1"
         transform="matrix(1.3333333,0,0,-1.3333333,11052.598,821.28467)"
         clip-path="url(#clipPath14386)" />
      <path
         id="path14387"
         d="M 0,0 -96.444,-96.447"
         style="fill:none;stroke:#83a6a7;stroke-width:0.26;stroke-linecap:butt;stroke-linejoin:miter;stroke-miterlimit:10;stroke-dasharray:none;stroke-opacity:1"
         transform="matrix(1.3333333,0,0,-1.3333333,11050.487,821.28467)"
         clip-path="url(#clipPath14388)" />
      <path
         id="path14389"
         d="m 0,0 0.01,-73.083 h 33.237 v -5.106 l 0.624,-2.729 h 31.512 l 0.547,2.729 v 5.106 h 9.767 L 75.687,0 Z"
         style="fill:none;stroke:#83a6a7;stroke-width:0.65;stroke-linecap:round;stroke-linejoin:round;stroke-miterlimit:10;stroke-dasharray:none;stroke-opacity:1"
         transform="matrix(1.3333333,0,0,-1.3333333,11032.208,837.05973)" />
      <path
         id="path14390"
         d="M 0,0 H -76.015"
         style="fill:none;stroke:#83a6a7;stroke-width:0.325;stroke-linecap:butt;stroke-linejoin:round;stroke-miterlimit:10;stroke-dasharray:none;stroke-opacity:1"
         transform="matrix(1.3333333,0,0,-1.3333333,11133.373,834.06333)" />
      <path
         id="path14391"
         d="m 1.5466109,0.09249375 c -0.2050781,0 -0.3867187,-0.03222656 -0.55078121,-0.09375 -0.15820313,-0.05273437 -0.29003907,-0.13183594 -0.3984375,-0.234375 -0.11132813,-0.0996094 -0.19628907,-0.22265625 -0.2578125,-0.36328125 -0.0644531,-0.14648437 -0.09375,-0.31054687 -0.09375,-0.4921875 0,-0.3105469 0.0820313,-0.5625 0.24609375,-0.75 C 0.65598594,-2.0286 0.87864219,-2.1750844 1.1598922,-2.2864125 0.93137656,-2.3860219 0.75266562,-2.5207875 0.62082969,-2.68485 0.48606406,-2.8547719 0.42161094,-3.0715687 0.42161094,-3.3293812 c 0,-0.1699219 0.0263672,-0.3222657 0.0820313,-0.4570313 0.0615234,-0.1318359 0.14355468,-0.2402344 0.24609375,-0.328125 0.10839843,-0.09375 0.22851562,-0.1640625 0.36328121,-0.2109375 0.140625,-0.046875 0.2871094,-0.070312 0.4453125,-0.070312 0.1640625,0 0.3105469,0.029297 0.4453126,0.082031 0.1318359,0.046875 0.2460936,0.1142578 0.3398436,0.1992187 0.099609,0.087891 0.178711,0.1933594 0.234375,0.3164063 0.052734,0.1171875 0.082031,0.2519531 0.082031,0.3984375 0,0.2753906 -0.064453,0.4980468 -0.1875,0.6679687 -0.1171875,0.1728516 -0.2900391,0.3222656 -0.5156251,0.4453125 0.3046876,0.140625 0.5273438,0.3105469 0.6679688,0.5039063 0.140625,0.196289 0.2109375,0.4189453 0.2109375,0.6679687 0,0.18164063 -0.032227,0.34570313 -0.09375,0.4921875 -0.064453,0.14941406 -0.1523437,0.27832031 -0.2695312,0.38671875 -0.1113282,0.10253906 -0.2431641,0.18164063 -0.3984375,0.234375 -0.1582032,0.06152344 -0.3339845,0.09375 -0.5273435,0.0937498 z m 0.796875,-1.17187495 c 0,-0.2021485 -0.067383,-0.3808594 -0.1992187,-0.5390625 C 2.0095016,-1.7737172 1.8044234,-1.9143422 1.5231734,-2.0403187 1.2712203,-1.9289906 1.0807906,-1.8000844 0.94895469,-1.6536 c -0.13476563,0.1494141 -0.19921875,0.3398438 -0.19921875,0.5742188 0,0.23437495 0.0732422,0.42187495 0.22265625,0.56249995 0.14648441,0.13476563 0.34277341,0.19921875 0.58593751,0.19921875 0.234375,0 0.421875,-0.0703125 0.5625,-0.2109375 0.1464844,-0.140625 0.2226562,-0.32226562 0.2226562,-0.5507812 z M 2.2028609,-3.3411 c 0,-0.2021484 -0.064453,-0.3632812 -0.1875,-0.4804687 C 1.8981734,-3.9387562 1.7370406,-3.99735 1.5348922,-3.99735 c -0.1875,0 -0.3398438,0.058594 -0.4570313,0.1757813 -0.11718746,0.1171875 -0.17578121,0.2753906 -0.17578121,0.46875 0,0.2050781 0.0585938,0.3720703 0.17578121,0.5039062 0.1230469,0.1347656 0.2841797,0.2548828 0.4804688,0.3632813 0.1933594,-0.09375 0.3515625,-0.2021485 0.46875,-0.328125 0.1171875,-0.131836 0.1757812,-0.3076172 0.1757812,-0.5273438 z m 3.5390625,0.023437 c 0,0.2988281 -0.058594,0.5830078 -0.1757812,0.8554688 -0.1113281,0.2666015 -0.2519531,0.5214843 -0.421875,0.7617187 -0.1640625,0.234375 -0.3486328,0.4570313 -0.5507813,0.6679688 -0.196289,0.20507808 -0.3720703,0.39843745 -0.5273437,0.58593745 h 1.6757812 v 0.4453125 H 3.5270797 V -0.43485 c 0.1933594,-0.234375 0.3925781,-0.46289062 0.5976562,-0.6914062 0.2109375,-0.225586 0.3984375,-0.4570313 0.5625,-0.6914063 0.1640625,-0.234375 0.2958985,-0.4716797 0.3984375,-0.7148437 0.1083985,-0.2490235 0.1640625,-0.5039063 0.1640625,-0.7617188 0,-0.2255859 -0.055664,-0.3896484 -0.1640625,-0.4921875 -0.102539,-0.1083984 -0.2519531,-0.1640625 -0.4453125,-0.1640625 -0.1816406,0 -0.3251953,0.055664 -0.4335937,0.1640625 -0.1113281,0.1113281 -0.1992188,0.2929688 -0.2695313,0.5507813 l -0.421875,-0.1289063 c 0.052734,-0.3105469 0.1875,-0.5625 0.3984375,-0.75 0.2109375,-0.1875 0.4628907,-0.28125 0.7617188,-0.28125 0.328125,0 0.5859375,0.099609 0.7734375,0.2929688 0.1933594,0.196289 0.2929687,0.4570312 0.2929687,0.7851557 z m 0,0"
         style="fill:#83a6a7;fill-opacity:1;fill-rule:nonzero;stroke:none"
         aria-label="82"
         transform="matrix(1.3333333,0,0,1.3333333,11079.543,831.4548)" />
      <path
         id="path14392"
         d="M 0,0 H 1.854"
         style="fill:none;stroke:#231f20;stroke-width:0.325;stroke-linecap:butt;stroke-linejoin:round;stroke-miterlimit:10;stroke-dasharray:none;stroke-opacity:1"
         transform="matrix(1.3333333,0,0,-1.3333333,11133.467,831.5632)" />
      <path
         id="path14393"
         d="M 0,0 H 1.854"
         style="fill:none;stroke:#231f20;stroke-width:0.325;stroke-linecap:butt;stroke-linejoin:round;stroke-miterlimit:10;stroke-dasharray:none;stroke-opacity:1"
         transform="matrix(1.3333333,0,0,-1.3333333,11029.559,831.5632)" />
      <path
         id="path14394"
         d="m 2.6479797,-3.3159328 c 0,0.2988281 -0.058594,0.5830078 -0.1757813,0.8554687 -0.1113281,0.2666016 -0.2519531,0.5214844 -0.421875,0.7617188 -0.1640625,0.234375 -0.3486328,0.4570312 -0.5507812,0.6679687 -0.1962891,0.20507816 -0.3720703,0.39843754 -0.52734376,0.58593754 H 2.6479797 V 4.734375e-4 H 0.43313594 V -0.43312031 c 0.19335937,-0.234375 0.39257812,-0.46289063 0.59765626,-0.69140629 0.2109375,-0.2255859 0.3984375,-0.4570312 0.5625,-0.6914062 0.1640625,-0.234375 0.2958984,-0.4716797 0.3984375,-0.7148438 0.1083984,-0.2490234 0.1640625,-0.5039062 0.1640625,-0.7617187 0,-0.225586 -0.055664,-0.3896485 -0.1640625,-0.4921875 -0.1025391,-0.1083985 -0.2519531,-0.1640625 -0.4453125,-0.1640625 -0.1816406,0 -0.3251953,0.055664 -0.4335938,0.1640625 -0.1113281,0.1113281 -0.19921871,0.2929687 -0.26953121,0.5507812 l -0.421875,-0.1289062 c 0.0527344,-0.3105469 0.1875,-0.5625 0.3984375,-0.75 0.21093751,-0.1875 0.46289061,-0.28125 0.76171871,-0.28125 0.328125,0 0.5859375,0.099609 0.7734375,0.2929687 0.1933594,0.1962891 0.2929688,0.4570313 0.2929688,0.7851563 z m -77.9999997,0 c 0,0.2988281 -0.05859,0.5830078 -0.175782,0.8554687 -0.111328,0.2666016 -0.251953,0.5214844 -0.421875,0.7617188 -0.164062,0.234375 -0.348632,0.4570312 -0.550781,0.6679687 -0.196289,0.20507816 -0.37207,0.39843754 -0.527344,0.58593754 h 1.675782 V 4.734375e-4 h -2.214844 V -0.43312031 c 0.193359,-0.234375 0.392578,-0.46289063 0.597656,-0.69140629 0.210938,-0.2255859 0.398438,-0.4570312 0.5625,-0.6914062 0.164063,-0.234375 0.295899,-0.4716797 0.398438,-0.7148438 0.108398,-0.2490234 0.164062,-0.5039062 0.164062,-0.7617187 0,-0.225586 -0.05566,-0.3896485 -0.164062,-0.4921875 -0.102539,-0.1083985 -0.251953,-0.1640625 -0.445313,-0.1640625 -0.18164,0 -0.325195,0.055664 -0.433594,0.1640625 -0.111328,0.1113281 -0.199218,0.2929687 -0.269531,0.5507812 l -0.421875,-0.1289062 c 0.05273,-0.3105469 0.1875,-0.5625 0.398438,-0.75 0.210937,-0.1875 0.46289,-0.28125 0.761718,-0.28125 0.328125,0 0.585938,0.099609 0.773438,0.2929687 0.193359,0.1962891 0.292969,0.4570313 0.292969,0.7851563 z m 0,0"
         style="fill:#231f20;fill-opacity:1;fill-rule:nonzero;stroke:none"
         aria-label="22"
         transform="matrix(1.3333333,0,0,1.3333333,11132.716,828.9564)" />
      <path
         id="path14395"
         d="m 418.303,140.699 h -1.854 V 214.4 h 1.854 z"
         style="fill:#050301;fill-opacity:1;fill-rule:nonzero;stroke:none"
         transform="matrix(1.3333333,0,0,-1.3333333,10578.117,1122.52)" />
      <path
         id="path14396"
         d="m 340.435,140.699 h -1.854 V 214.4 h 1.854 z"
         style="fill:#050301;fill-opacity:1;fill-rule:nonzero;stroke:none"
         transform="matrix(1.3333333,0,0,-1.3333333,10578.117,1122.52)" />
    </g>
  </g>
</svg>
